<?xml version="1.0" standalone="no"?>
<!DOCTYPE svg PUBLIC "-//W3C//DTD SVG 20010904//EN"
 "http://www.w3.org/TR/2001/REC-SVG-20010904/DTD/svg10.dtd">
<svg version="1.0" xmlns="http://www.w3.org/2000/svg"
 width="16.000000pt" height="16.000000pt" viewBox="0 0 16.000000 16.000000"
 preserveAspectRatio="xMidYMid meet">

<g transform="translate(0.000000,16.000000) scale(0.100000,-0.100000)"
fill="#000000" stroke="none">
<path d="M25 109 c-6 -8 -4 -10 5 -4 9 6 11 -1 6 -26 -6 -34 -6 -34 5 -6 12
31 -2 60 -16 36z"/>
<path d="M62 65 c-11 -13 -9 -15 12 -15 18 0 24 4 20 15 -8 19 -15 18 -32 0z"/>
<path d="M41 37 c2 -1 13 -9 24 -17 19 -14 19 -14 6 3 -7 9 -18 17 -24 17 -6
0 -8 -1 -6 -3z"/>
</g>
</svg>
