<?xml version="1.0" standalone="no"?>
<!DOCTYPE svg PUBLIC "-//W3C//DTD SVG 20010904//EN"
 "http://www.w3.org/TR/2001/REC-SVG-20010904/DTD/svg10.dtd">
<svg version="1.0" xmlns="http://www.w3.org/2000/svg"
 width="299.000000pt" height="144.000000pt" viewBox="0 0 299.000000 144.000000"
 preserveAspectRatio="xMidYMid meet">

<g transform="translate(0.000000,144.000000) scale(0.100000,-0.100000)"
fill="#000000" stroke="none">
<path d="M1145 1184 c-33 -20 -62 -38 -64 -40 -3 -3 9 -66 50 -259 10 -49 26
-127 35 -172 9 -45 21 -89 27 -97 14 -17 283 -176 298 -176 6 0 68 35 139 77
126 76 128 77 113 100 -17 26 -5 30 -155 -54 l-98 -55 -114 66 c-63 37 -119
72 -125 80 -6 8 -18 45 -25 82 -27 133 -76 357 -81 365 -3 4 19 23 50 41 56
34 64 45 43 66 -17 17 -27 15 -93 -24z"/>
<path d="M1247 1114 c-39 -20 -46 -28 -42 -47 3 -12 14 -67 25 -122 11 -55 28
-130 36 -167 l16 -68 190 0 c180 0 190 1 177 18 -23 29 -43 41 -66 42 -19 0
-23 6 -23 31 0 39 -84 139 -117 139 -22 0 -23 -3 -23 -85 l0 -85 -45 0 c-38 0
-45 3 -50 23 -2 12 -13 60 -24 107 -36 159 -36 157 -1 178 30 19 30 20 13 40
l-18 21 -48 -25z"/>
<path d="M1459 669 c-8 -16 -8 -27 1 -45 7 -12 10 -32 7 -43 -4 -18 -1 -21 25
-21 27 0 30 2 24 26 -4 15 -2 32 5 40 9 11 9 21 1 39 -14 31 -47 33 -63 4z"/>
<path d="M950 235 c0 -88 1 -95 20 -95 13 0 20 7 20 19 0 30 16 33 30 6 8 -16
22 -25 37 -25 28 0 28 4 2 47 l-21 34 21 23 c27 29 27 36 -3 36 -15 0 -32 -11
-45 -27 l-20 -28 -1 53 c0 45 -3 52 -20 52 -19 0 -20 -7 -20 -95z"/>
<path d="M1530 236 l0 -96 25 0 26 0 -3 93 c-3 87 -4 92 -25 95 -22 3 -23 1
-23 -92z"/>
<path d="M1917 324 c-4 -4 -7 -47 -7 -96 0 -87 0 -88 25 -88 18 0 25 5 25 19
0 30 16 33 30 6 8 -16 22 -25 37 -25 28 0 29 7 3 40 -25 31 -25 36 1 71 l20
29 -25 0 c-17 0 -32 -9 -43 -27 l-18 -27 -5 49 c-3 34 -10 51 -20 53 -9 1 -19
0 -23 -4z"/>
<path d="M1122 264 c-32 -22 -31 -88 2 -109 32 -21 90 -16 94 7 3 15 -2 17
-25 12 -20 -4 -33 -1 -42 10 -12 14 -8 16 34 16 46 0 47 0 41 28 -13 50 -60
67 -104 36z m53 -24 c3 -5 -1 -10 -10 -10 -9 0 -13 5 -10 10 3 6 8 10 10 10 2
0 7 -4 10 -10z"/>
<path d="M1246 258 c3 -13 15 -43 26 -67 l20 -45 -22 -18 c-13 -10 -20 -24
-16 -33 15 -41 68 11 101 99 14 37 25 72 25 77 0 8 -40 14 -40 7 0 -2 -6 -20
-14 -41 l-13 -39 -16 41 c-12 30 -23 41 -38 41 -16 0 -19 -4 -13 -22z"/>
<path d="M1422 264 c-29 -20 -31 -83 -3 -108 26 -24 75 -18 79 9 2 17 -3 21
-25 20 -23 0 -28 4 -28 25 0 19 6 26 25 29 29 4 44 22 27 33 -19 12 -51 9 -75
-8z"/>
<path d="M1624 254 c-20 -19 -24 -31 -19 -52 9 -39 34 -62 65 -62 58 0 86 84
41 122 -32 25 -57 23 -87 -8z m64 -39 c3 -26 -13 -50 -27 -41 -6 4 -11 21 -11
37 0 24 4 30 18 27 9 -2 18 -12 20 -23z"/>
<path d="M1781 271 c-17 -11 -5 -33 17 -30 35 3 36 -3 2 -14 -31 -11 -35 -16
-35 -47 0 -29 4 -36 23 -38 13 -2 29 2 37 8 9 7 15 8 20 0 3 -5 13 -10 21 -10
22 0 20 109 -3 126 -21 15 -62 18 -82 5z m47 -83 c-6 -18 -28 -21 -28 -4 0 9
7 16 16 16 9 0 14 -5 12 -12z"/>
</g>
</svg>
