<?xml version="1.0" standalone="no"?>
<!DOCTYPE svg PUBLIC "-//W3C//DTD SVG 20010904//EN"
 "http://www.w3.org/TR/2001/REC-SVG-20010904/DTD/svg10.dtd">
<svg version="1.0" xmlns="http://www.w3.org/2000/svg"
 width="600.000000pt" height="525.000000pt" viewBox="0 0 600.000000 525.000000"
 preserveAspectRatio="xMidYMid meet">
<g transform="translate(0.000000,525.000000) scale(0.100000,-0.100000)"
fill="#000000" stroke="none">
<path d="M2269 5081 l-29 -29 0 -177 0 -177 29 -29 29 -29 346 0 345 0 3 -72
c3 -67 5 -73 26 -76 12 -2 22 2 22 8 0 7 -8 10 -17 8 -16 -4 -18 2 -15 64 l4
68 345 0 345 0 29 29 29 29 0 177 0 177 -29 29 -29 29 -702 0 -702 0 -29 -29z
m1451 -11 c18 -18 20 -33 20 -195 0 -162 -2 -177 -20 -195 -20 -20 -33 -20
-720 -20 -687 0 -700 0 -720 20 -18 18 -20 33 -20 195 0 162 2 177 20 195 20
20 33 20 720 20 687 0 700 0 720 -20z"/>
<path d="M2831 4913 c-31 -21 -29 -80 3 -95 14 -6 33 -7 43 -3 15 7 14 9 -11
14 -16 3 -34 14 -40 24 -15 24 3 51 40 57 26 5 27 6 7 12 -12 3 -31 -1 -42 -9z"/>
<path d="M2900 4870 c0 -33 4 -60 10 -60 6 0 10 27 10 60 0 33 -4 60 -10 60
-6 0 -10 -27 -10 -60z"/>
<path d="M2940 4920 c0 -5 5 -10 10 -10 6 0 10 5 10 10 0 6 -4 10 -10 10 -5 0
-10 -4 -10 -10z"/>
<path d="M3157 4903 c-3 -5 -2 -26 2 -48 4 -26 12 -41 24 -43 9 -2 17 1 17 7
0 6 -4 11 -9 11 -5 0 -11 11 -13 25 -4 17 -1 25 8 25 19 0 18 16 -2 24 -20 8
-22 8 -27 -1z"/>
<path d="M2947 4893 c-11 -10 -8 -83 3 -83 6 0 10 20 10 45 0 46 -2 50 -13 38z"/>
<path d="M2990 4886 c-27 -34 8 -88 46 -71 17 8 17 9 -6 13 -40 6 -48 22 -12
22 33 0 42 16 20 38 -16 16 -33 15 -48 -2z m40 -16 c0 -5 -9 -10 -21 -10 -11
0 -17 5 -14 10 3 6 13 10 21 10 8 0 14 -4 14 -10z"/>
<path d="M3072 4850 c1 -43 2 -44 5 -7 3 29 9 37 24 37 15 0 19 -7 19 -35 0
-19 5 -35 10 -35 15 0 12 66 -3 78 -7 6 -23 10 -35 9 -19 -1 -22 -6 -20 -47z"/>
<path d="M484 4499 c-3 -5 16 -9 41 -9 25 0 44 4 41 9 -3 5 -22 9 -41 9 -19 0
-38 -4 -41 -9z"/>
<path d="M600 4500 c0 -5 9 -10 20 -10 11 0 20 5 20 10 0 6 -9 10 -20 10 -11
0 -20 -4 -20 -10z"/>
<path d="M670 4500 c0 -5 12 -10 26 -10 14 0 23 4 19 10 -3 6 -15 10 -26 10
-10 0 -19 -4 -19 -10z"/>
<path d="M750 4500 c0 -5 9 -10 20 -10 11 0 20 5 20 10 0 6 -9 10 -20 10 -11
0 -20 -4 -20 -10z"/>
<path d="M820 4500 c0 -5 9 -10 20 -10 11 0 20 5 20 10 0 6 -9 10 -20 10 -11
0 -20 -4 -20 -10z"/>
<path d="M900 4500 c0 -5 9 -10 20 -10 11 0 20 5 20 10 0 6 -9 10 -20 10 -11
0 -20 -4 -20 -10z"/>
<path d="M970 4500 c0 -5 9 -10 20 -10 11 0 20 5 20 10 0 6 -9 10 -20 10 -11
0 -20 -4 -20 -10z"/>
<path d="M1050 4500 c0 -5 9 -10 20 -10 11 0 20 5 20 10 0 6 -9 10 -20 10 -11
0 -20 -4 -20 -10z"/>
<path d="M1120 4500 c0 -5 12 -10 26 -10 14 0 23 4 19 10 -3 6 -15 10 -26 10
-10 0 -19 -4 -19 -10z"/>
<path d="M1200 4500 c0 -5 9 -10 20 -10 11 0 20 5 20 10 0 6 -9 10 -20 10 -11
0 -20 -4 -20 -10z"/>
<path d="M1275 4500 c-3 -5 3 -10 14 -10 12 0 21 5 21 10 0 6 -6 10 -14 10 -8
0 -18 -4 -21 -10z"/>
<path d="M1350 4500 c0 -5 9 -10 20 -10 11 0 20 5 20 10 0 6 -9 10 -20 10 -11
0 -20 -4 -20 -10z"/>
<path d="M1420 4500 c0 -5 9 -10 20 -10 11 0 20 5 20 10 0 6 -9 10 -20 10 -11
0 -20 -4 -20 -10z"/>
<path d="M1500 4500 c0 -5 9 -10 20 -10 11 0 20 5 20 10 0 6 -9 10 -20 10 -11
0 -20 -4 -20 -10z"/>
<path d="M1570 4500 c0 -5 9 -10 20 -10 11 0 20 5 20 10 0 6 -9 10 -20 10 -11
0 -20 -4 -20 -10z"/>
<path d="M1650 4500 c0 -5 9 -10 20 -10 11 0 20 5 20 10 0 6 -9 10 -20 10 -11
0 -20 -4 -20 -10z"/>
<path d="M1720 4500 c0 -5 12 -10 26 -10 14 0 23 4 19 10 -3 6 -15 10 -26 10
-10 0 -19 -4 -19 -10z"/>
<path d="M1800 4500 c0 -5 9 -10 20 -10 11 0 20 5 20 10 0 6 -9 10 -20 10 -11
0 -20 -4 -20 -10z"/>
<path d="M1870 4500 c0 -5 12 -10 26 -10 14 0 23 4 19 10 -3 6 -15 10 -26 10
-10 0 -19 -4 -19 -10z"/>
<path d="M1950 4500 c0 -5 9 -10 20 -10 11 0 20 5 20 10 0 6 -9 10 -20 10 -11
0 -20 -4 -20 -10z"/>
<path d="M2020 4500 c0 -5 9 -10 20 -10 11 0 20 5 20 10 0 6 -9 10 -20 10 -11
0 -20 -4 -20 -10z"/>
<path d="M2100 4500 c0 -5 9 -10 20 -10 11 0 20 5 20 10 0 6 -9 10 -20 10 -11
0 -20 -4 -20 -10z"/>
<path d="M2170 4500 c0 -5 9 -10 20 -10 11 0 20 5 20 10 0 6 -9 10 -20 10 -11
0 -20 -4 -20 -10z"/>
<path d="M2250 4500 c0 -5 9 -10 20 -10 11 0 20 5 20 10 0 6 -9 10 -20 10 -11
0 -20 -4 -20 -10z"/>
<path d="M2320 4500 c0 -5 12 -10 26 -10 14 0 23 4 19 10 -3 6 -15 10 -26 10
-10 0 -19 -4 -19 -10z"/>
<path d="M2400 4500 c0 -5 9 -10 20 -10 11 0 20 5 20 10 0 6 -9 10 -20 10 -11
0 -20 -4 -20 -10z"/>
<path d="M2475 4500 c-3 -5 3 -10 14 -10 12 0 21 5 21 10 0 6 -6 10 -14 10 -8
0 -18 -4 -21 -10z"/>
<path d="M2550 4500 c0 -5 9 -10 20 -10 11 0 20 5 20 10 0 6 -9 10 -20 10 -11
0 -20 -4 -20 -10z"/>
<path d="M2620 4500 c0 -5 9 -10 20 -10 11 0 20 5 20 10 0 6 -9 10 -20 10 -11
0 -20 -4 -20 -10z"/>
<path d="M2700 4500 c0 -5 9 -10 20 -10 11 0 20 5 20 10 0 6 -9 10 -20 10 -11
0 -20 -4 -20 -10z"/>
<path d="M2770 4500 c0 -5 9 -10 20 -10 11 0 20 5 20 10 0 6 -9 10 -20 10 -11
0 -20 -4 -20 -10z"/>
<path d="M2850 4500 c0 -5 9 -10 20 -10 11 0 20 5 20 10 0 6 -9 10 -20 10 -11
0 -20 -4 -20 -10z"/>
<path d="M2920 4500 c0 -5 9 -10 20 -10 11 0 20 5 20 10 0 6 -9 10 -20 10 -11
0 -20 -4 -20 -10z"/>
<path d="M3070 4500 c0 -5 12 -10 26 -10 14 0 23 4 19 10 -3 6 -15 10 -26 10
-10 0 -19 -4 -19 -10z"/>
<path d="M3150 4500 c0 -5 9 -10 20 -10 11 0 20 5 20 10 0 6 -9 10 -20 10 -11
0 -20 -4 -20 -10z"/>
<path d="M3220 4500 c0 -5 9 -10 20 -10 11 0 20 5 20 10 0 6 -9 10 -20 10 -11
0 -20 -4 -20 -10z"/>
<path d="M3300 4500 c0 -5 9 -10 20 -10 11 0 20 5 20 10 0 6 -9 10 -20 10 -11
0 -20 -4 -20 -10z"/>
<path d="M3370 4500 c0 -5 9 -10 20 -10 11 0 20 5 20 10 0 6 -9 10 -20 10 -11
0 -20 -4 -20 -10z"/>
<path d="M3450 4500 c0 -5 9 -10 20 -10 11 0 20 5 20 10 0 6 -9 10 -20 10 -11
0 -20 -4 -20 -10z"/>
<path d="M3520 4500 c0 -5 12 -10 26 -10 14 0 23 4 19 10 -3 6 -15 10 -26 10
-10 0 -19 -4 -19 -10z"/>
<path d="M3600 4500 c0 -5 9 -10 20 -10 11 0 20 5 20 10 0 6 -9 10 -20 10 -11
0 -20 -4 -20 -10z"/>
<path d="M3675 4500 c-3 -5 3 -10 14 -10 12 0 21 5 21 10 0 6 -6 10 -14 10 -8
0 -18 -4 -21 -10z"/>
<path d="M3750 4500 c0 -5 9 -10 20 -10 11 0 20 5 20 10 0 6 -9 10 -20 10 -11
0 -20 -4 -20 -10z"/>
<path d="M3820 4500 c0 -5 9 -10 20 -10 11 0 20 5 20 10 0 6 -9 10 -20 10 -11
0 -20 -4 -20 -10z"/>
<path d="M3900 4500 c0 -5 9 -10 20 -10 11 0 20 5 20 10 0 6 -9 10 -20 10 -11
0 -20 -4 -20 -10z"/>
<path d="M3970 4500 c0 -5 9 -10 20 -10 11 0 20 5 20 10 0 6 -9 10 -20 10 -11
0 -20 -4 -20 -10z"/>
<path d="M4050 4500 c0 -5 9 -10 20 -10 11 0 20 5 20 10 0 6 -9 10 -20 10 -11
0 -20 -4 -20 -10z"/>
<path d="M4120 4500 c0 -5 12 -10 26 -10 14 0 23 4 19 10 -3 6 -15 10 -26 10
-10 0 -19 -4 -19 -10z"/>
<path d="M4200 4500 c0 -5 9 -10 20 -10 11 0 20 5 20 10 0 6 -9 10 -20 10 -11
0 -20 -4 -20 -10z"/>
<path d="M4270 4500 c0 -5 12 -10 26 -10 14 0 23 4 19 10 -3 6 -15 10 -26 10
-10 0 -19 -4 -19 -10z"/>
<path d="M4350 4500 c0 -5 9 -10 20 -10 11 0 20 5 20 10 0 6 -9 10 -20 10 -11
0 -20 -4 -20 -10z"/>
<path d="M4420 4500 c0 -5 9 -10 20 -10 11 0 20 5 20 10 0 6 -9 10 -20 10 -11
0 -20 -4 -20 -10z"/>
<path d="M4500 4500 c0 -5 9 -10 20 -10 11 0 20 5 20 10 0 6 -9 10 -20 10 -11
0 -20 -4 -20 -10z"/>
<path d="M4570 4500 c0 -5 9 -10 20 -10 11 0 20 5 20 10 0 6 -9 10 -20 10 -11
0 -20 -4 -20 -10z"/>
<path d="M4650 4500 c0 -5 9 -10 20 -10 11 0 20 5 20 10 0 6 -9 10 -20 10 -11
0 -20 -4 -20 -10z"/>
<path d="M4720 4500 c0 -5 12 -10 26 -10 14 0 23 4 19 10 -3 6 -15 10 -26 10
-10 0 -19 -4 -19 -10z"/>
<path d="M4800 4500 c0 -5 9 -10 20 -10 11 0 20 5 20 10 0 6 -9 10 -20 10 -11
0 -20 -4 -20 -10z"/>
<path d="M4875 4500 c-3 -5 3 -10 14 -10 12 0 21 5 21 10 0 6 -6 10 -14 10 -8
0 -18 -4 -21 -10z"/>
<path d="M4950 4500 c0 -5 9 -10 20 -10 11 0 20 5 20 10 0 6 -9 10 -20 10 -11
0 -20 -4 -20 -10z"/>
<path d="M5020 4500 c0 -5 9 -10 20 -10 11 0 20 5 20 10 0 6 -9 10 -20 10 -11
0 -20 -4 -20 -10z"/>
<path d="M5100 4500 c0 -5 9 -10 20 -10 11 0 20 5 20 10 0 6 -9 10 -20 10 -11
0 -20 -4 -20 -10z"/>
<path d="M5170 4500 c0 -5 9 -10 20 -10 11 0 20 5 20 10 0 6 -9 10 -20 10 -11
0 -20 -4 -20 -10z"/>
<path d="M5250 4500 c0 -5 9 -10 20 -10 11 0 20 5 20 10 0 6 -9 10 -20 10 -11
0 -20 -4 -20 -10z"/>
<path d="M5320 4500 c0 -5 12 -10 26 -10 14 0 23 4 19 10 -3 6 -15 10 -26 10
-10 0 -19 -4 -19 -10z"/>
<path d="M5400 4500 c0 -5 9 -10 20 -10 11 0 20 5 20 10 0 6 -9 10 -20 10 -11
0 -20 -4 -20 -10z"/>
<path d="M5470 4500 c0 -5 12 -10 26 -10 14 0 23 4 19 10 -3 6 -15 10 -26 10
-10 0 -19 -4 -19 -10z"/>
<path d="M432 4478 c-17 -17 -15 -24 7 -24 12 0 17 6 13 18 -5 21 -5 21 -20 6z"/>
<path d="M5547 4482 c-3 -4 3 -13 14 -20 10 -7 19 -8 19 -3 0 13 -28 33 -33
23z"/>
<path d="M705 4460 c-3 -6 1 -7 9 -4 18 7 21 14 7 14 -6 0 -13 -4 -16 -10z"/>
<path d="M1905 4460 c-3 -6 1 -7 9 -4 18 7 21 14 7 14 -6 0 -13 -4 -16 -10z"/>
<path d="M3105 4460 c-3 -6 1 -7 9 -4 18 7 21 14 7 14 -6 0 -13 -4 -16 -10z"/>
<path d="M4305 4460 c-3 -6 1 -7 9 -4 18 7 21 14 7 14 -6 0 -13 -4 -16 -10z"/>
<path d="M5600 4430 c0 -8 5 -22 10 -30 9 -13 10 -13 10 0 0 8 -5 22 -10 30
-9 13 -10 13 -10 0z"/>
<path d="M380 4408 c0 -19 2 -20 10 -8 13 19 13 30 0 30 -5 0 -10 -10 -10 -22z"/>
<path d="M505 4361 c-3 -5 -2 -12 3 -15 5 -3 9 1 9 9 0 17 -3 19 -12 6z"/>
<path d="M542 4353 c-4 -10 -5 -34 -1 -53 l6 -35 2 32 c0 17 7 34 14 36 9 4 8
6 -2 6 -11 1 -11 4 -1 16 8 10 9 15 2 15 -6 0 -15 -8 -20 -17z"/>
<path d="M1000 4351 c0 -14 -5 -18 -19 -14 -13 3 -21 -2 -26 -17 -8 -26 9 -49
36 -47 16 1 19 9 19 49 0 26 -2 48 -5 48 -3 0 -5 -9 -5 -19z m-5 -44 c0 -26
-20 -25 -23 2 -3 16 1 22 10 19 7 -3 13 -12 13 -21z"/>
<path d="M1460 4319 c0 -31 4 -48 10 -44 6 4 8 11 5 16 -4 5 -1 9 5 9 6 0 13
-7 16 -15 4 -8 11 -15 17 -15 5 0 2 9 -8 20 -15 17 -16 22 -4 37 11 15 11 16
-1 6 -21 -19 -28 -16 -22 12 2 15 0 25 -7 25 -7 0 -11 -20 -11 -51z"/>
<path d="M367 4340 c-3 -12 0 -20 8 -20 8 0 11 8 8 20 -3 11 -7 20 -8 20 -1 0
-5 -9 -8 -20z"/>
<path d="M5614 4340 c0 -11 3 -20 7 -20 4 0 9 9 12 20 3 12 0 20 -7 20 -6 0
-12 -9 -12 -20z"/>
<path d="M768 4345 c-10 -11 8 -69 22 -73 12 -4 13 -2 3 9 -16 16 -17 49 -2
49 5 0 7 5 4 10 -7 11 -19 13 -27 5z"/>
<path d="M1202 4314 c2 -30 8 -39 23 -41 11 -2 14 0 8 3 -15 6 -18 54 -4 54 5
0 14 -15 21 -32 l12 -33 13 29 12 29 7 -29 c6 -22 10 -25 16 -14 16 30 21 60
11 60 -6 0 -11 -10 -11 -22 -1 -23 -1 -23 -15 2 l-14 25 -9 -25 -9 -25 -7 23
c-4 12 -11 22 -16 22 -5 0 -16 3 -25 6 -14 6 -16 1 -13 -32z"/>
<path d="M577 4312 c-3 -15 -1 -31 4 -36 5 -6 9 2 9 22 0 22 5 32 15 32 8 0
15 -8 15 -19 0 -25 23 -43 44 -35 11 4 16 15 14 33 -3 24 -7 26 -49 28 -44 2
-47 0 -52 -25z m88 -7 c0 -10 -5 -20 -11 -22 -13 -4 -27 24 -18 38 9 15 29 4
29 -16z"/>
<path d="M702 4303 c1 -37 1 -37 5 -5 3 18 10 32 18 32 8 0 16 -14 18 -32 l5
-33 -2 35 c-1 28 -5 36 -23 38 -21 3 -23 -1 -21 -35z"/>
<path d="M813 4324 c-3 -9 -2 -24 4 -33 12 -19 43 -27 43 -12 0 6 -3 10 -7 10
-24 -4 -34 4 -13 10 31 9 33 35 2 39 -14 2 -25 -3 -29 -14z m37 -4 c0 -5 -4
-10 -10 -10 -5 0 -10 5 -10 10 0 6 5 10 10 10 6 0 10 -4 10 -10z"/>
<path d="M880 4302 c0 -20 3 -32 8 -28 4 4 7 17 7 29 0 11 6 22 13 24 7 3 12
-5 12 -21 0 -13 5 -28 11 -31 7 -5 9 5 7 26 -3 29 -7 34 -30 35 -25 1 -28 -2
-28 -34z"/>
<path d="M1061 4301 c1 -35 2 -35 8 -7 9 41 31 46 31 7 0 -17 5 -31 11 -31 6
0 9 14 7 33 -3 27 -7 32 -30 33 -26 1 -28 -2 -27 -35z"/>
<path d="M1134 4326 c-13 -35 26 -71 49 -46 10 10 8 12 -5 7 -10 -3 -20 -2
-23 3 -4 6 3 10 15 10 15 0 20 5 18 18 -4 22 -46 29 -54 8z m36 -6 c0 -5 -4
-10 -10 -10 -5 0 -10 5 -10 10 0 6 5 10 10 10 6 0 10 -4 10 -10z"/>
<path d="M1347 4333 c-13 -13 -7 -51 10 -57 23 -9 47 17 38 43 -6 20 -34 28
-48 14z m36 -17 c6 -16 -16 -40 -26 -29 -4 3 -7 15 -7 25 0 21 25 24 33 4z"/>
<path d="M1410 4305 c0 -19 5 -35 10 -35 6 0 10 13 10 29 0 16 6 32 13 34 6 3
2 6 -10 6 -20 1 -23 -4 -23 -34z"/>
<path d="M5621 4278 c0 -9 -4 -25 -7 -35 -5 -14 -4 -15 5 -7 7 7 11 22 8 35
-2 13 -5 16 -6 7z"/>
<path d="M370 4260 c0 -11 4 -20 8 -20 4 0 8 9 8 20 0 11 -4 20 -8 20 -4 0 -8
-9 -8 -20z"/>
<path d="M677 4239 c6 -23 9 -24 16 -5 3 8 0 17 -7 19 -10 4 -12 -1 -9 -14z"/>
<path d="M1066 4243 c-6 -14 -5 -15 5 -6 7 7 10 15 7 18 -3 3 -9 -2 -12 -12z"/>
<path d="M1181 4241 c-10 -6 -9 -10 3 -14 8 -3 18 -2 21 3 8 13 -9 20 -24 11z"/>
<path d="M1476 4237 c3 -10 9 -15 12 -12 3 3 0 11 -7 18 -10 9 -11 8 -5 -6z"/>
<path d="M536 4225 c-3 -8 -1 -15 4 -15 6 0 10 7 10 15 0 8 -2 15 -4 15 -2 0
-6 -7 -10 -15z"/>
<path d="M970 4226 c7 -7 13 -7 20 0 6 6 3 10 -10 10 -13 0 -16 -4 -10 -10z"/>
<path d="M1440 4220 c-9 -6 -10 -10 -3 -10 6 0 15 5 18 10 8 12 4 12 -15 0z"/>
<path d="M372 4190 c0 -14 2 -19 5 -12 2 6 2 18 0 25 -3 6 -5 1 -5 -13z"/>
<path d="M5617 4190 c3 -11 7 -20 9 -20 2 0 4 9 4 20 0 11 -4 20 -9 20 -5 0
-7 -9 -4 -20z"/>
<path d="M5622 4115 c0 -16 2 -22 5 -12 2 9 2 23 0 30 -3 6 -5 -1 -5 -18z"/>
<path d="M372 4110 c0 -14 2 -19 5 -12 2 6 2 18 0 25 -3 6 -5 1 -5 -13z"/>
<path d="M1922 4119 c-41 -15 -42 -28 -43 -294 -1 -241 1 -259 18 -277 18 -18
38 -19 371 -18 l352 0 -470 -941 c-421 -841 -473 -939 -487 -927 -13 10 -17
10 -20 1 -4 -10 -98 -13 -424 -13 l-420 0 -24 -25 -25 -24 0 -255 0 -255 26
-20 c26 -21 37 -21 463 -21 l437 0 50 -23 c27 -13 182 -80 345 -148 l297 -124
-115 -5 c-158 -7 -153 1 -153 -227 0 -171 0 -174 25 -198 l24 -25 851 0 851 0
24 25 c25 24 25 27 25 198 0 228 5 220 -153 227 l-115 5 297 124 c163 68 318
135 345 148 l50 23 437 0 c426 0 437 0 463 21 l26 20 0 255 0 255 -25 24 -24
25 -420 0 c-326 0 -420 3 -424 13 -3 9 -7 9 -20 -1 -14 -12 -65 85 -487 927
l-470 941 352 0 c333 -1 353 0 371 18 17 18 19 36 18 278 0 235 -2 260 -19
276 -17 17 -69 18 -1091 21 -589 1 -1080 -1 -1089 -4z m32 -21 c-5 -8 -2 -9
10 -5 24 9 2048 9 2072 0 11 -4 15 -3 11 4 -5 7 0 9 13 6 11 -3 25 -14 31 -25
13 -25 12 -439 -1 -452 -6 -6 -10 -15 -10 -21 0 -5 5 -3 10 5 8 12 10 12 10
-5 -1 -11 -6 -28 -14 -37 -11 -15 -43 -17 -327 -18 -173 0 -323 -2 -334 -3
-11 -1 -19 3 -18 11 4 19 -3 14 -21 -13 -16 -24 -8 -41 449 -955 256 -511 465
-932 465 -935 0 -3 -197 -5 -438 -5 -362 0 -442 -2 -458 -14 -18 -13 -19 -32
-24 -263 -5 -255 -1 -296 30 -313 11 -6 190 -10 452 -11 238 0 426 -3 418 -6
-8 -3 -165 -68 -349 -145 -334 -141 -350 -146 -351 -104 0 6 -13 -2 -28 -17
l-28 -27 -524 0 -524 0 -28 27 -29 27 -6 -22 c-3 -12 -8 -22 -11 -22 -4 0
-155 63 -337 139 -181 76 -337 141 -345 144 -8 3 181 6 420 7 465 1 461 0 477
51 4 13 6 136 3 272 -5 231 -6 250 -24 263 -16 12 -96 14 -458 14 -241 0 -438
2 -438 5 0 13 143 290 151 293 5 2 9 10 9 18 0 7 173 360 385 784 378 756 385
771 369 795 -17 26 -26 32 -21 15 3 -15 -663 -14 -677 0 -7 7 -13 103 -16 256
-6 270 -4 277 58 293 2 1 0 -4 -4 -11z m-248 -2480 c3 -5 11 -5 17 -1 7 4 206
7 442 5 279 -2 425 -6 415 -12 -13 -9 -13 -10 0 -10 13 0 15 -33 13 -245 0
-135 -4 -252 -7 -260 -5 -13 -59 -15 -381 -15 -248 0 -374 -3 -370 -10 4 -7
-2 -7 -18 -1 -14 6 -28 7 -31 4 -3 -3 -13 0 -23 8 -14 12 -16 12 -8 0 6 -11 3
-13 -13 -9 -12 4 -20 2 -16 -3 3 -5 -2 -9 -10 -9 -8 0 -18 4 -21 10 -4 6 -156
9 -415 7 -224 -1 -406 1 -403 5 2 5 -7 4 -21 -2 -27 -10 -56 -4 -56 12 0 5 -4
7 -9 4 -16 -10 -19 36 -20 267 0 189 3 229 15 234 7 3 11 9 8 14 -3 5 3 9 13
9 10 1 191 1 403 0 212 0 398 4 415 8 33 9 72 5 81 -10z m3078 2 c215 0 399 1
409 0 10 0 16 -4 13 -9 -4 -5 -2 -11 4 -13 6 -2 11 -91 13 -240 1 -130 -1
-234 -5 -232 -4 3 -5 -2 -2 -10 3 -9 1 -16 -6 -16 -6 0 -8 -4 -5 -10 8 -12 54
-11 -450 -10 -232 0 -424 -2 -428 -6 -13 -14 -57 -13 -71 1 -7 8 -16 11 -20 8
-9 -9 -810 -3 -819 7 -5 4 -10 121 -10 259 -2 217 0 251 13 251 13 0 13 1 0
10 -10 6 138 10 415 12 237 2 435 0 441 -4 6 -4 15 -4 20 1 15 14 47 18 73 9
13 -5 200 -8 415 -8z m-2334 -886 c5 -1 15 -2 21 -3 5 0 8 -5 5 -9 -5 -9 -46
-9 -75 -1 -7 2 -16 -2 -18 -8 -3 -9 8 -13 39 -13 24 0 61 -3 83 -6 l40 -6 -30
27 c-20 18 -24 25 -11 21 24 -8 968 -8 992 0 13 4 9 -3 -11 -21 l-30 -27 40 6
c22 3 60 6 83 6 31 0 42 4 39 13 -2 6 -11 10 -18 8 -29 -8 -70 -8 -75 1 -3 4
0 9 5 9 6 1 16 2 21 3 6 0 14 7 19 14 7 11 10 10 15 -3 5 -15 9 -15 22 -4 14
11 18 11 28 -1 8 -12 32 -14 103 -12 84 3 93 1 117 -21 26 -24 26 -25 26 -184
0 -112 -4 -164 -13 -176 -11 -16 -70 -18 -865 -18 -469 0 -858 3 -863 7 -6 4
-6 11 2 20 10 12 9 13 -5 8 -15 -6 -17 8 -15 157 1 161 2 164 26 187 23 21 33
22 116 20 71 -2 95 0 103 12 10 12 14 12 28 1 13 -11 17 -11 22 4 5 13 8 14
15 3 5 -7 13 -14 19 -14z"/>
<path d="M3198 3881 c-9 -11 -14 -21 -12 -24 3 -3 1 -8 -4 -11 -5 -3 -16 2
-23 11 -12 14 -12 16 1 8 13 -8 13 -6 2 7 -8 9 -20 14 -29 11 -11 -4 -11 -8
-3 -13 8 -5 9 -10 2 -14 -6 -3 -14 -1 -17 5 -4 6 -18 8 -32 4 -16 -4 -22 -2
-18 4 3 7 0 8 -9 5 -9 -3 -13 -11 -9 -18 3 -6 0 -5 -8 2 -12 11 -12 14 1 23
11 7 8 8 -12 5 -35 -6 -50 -15 -43 -26 7 -11 -22 -7 -32 5 -4 4 -1 5 7 0 12
-7 13 -6 2 6 -14 15 -165 22 -156 7 3 -5 9 -6 14 -3 5 3 11 1 15 -5 3 -5 0
-10 -8 -10 -8 0 -18 -8 -22 -17 -5 -14 -3 -15 6 -6 14 14 39 6 39 -14 0 -8 4
-12 8 -9 5 3 6 -8 4 -25 -2 -16 1 -36 8 -44 14 -17 40 -20 40 -5 0 6 -6 10
-14 10 -10 0 -12 12 -8 50 4 46 3 50 -17 50 -11 0 -21 5 -21 10 0 6 20 10 45
10 25 0 45 -4 45 -10 0 -5 -9 -10 -21 -10 -18 0 -20 -5 -17 -47 2 -28 8 -48
15 -48 6 0 15 -4 20 -9 5 -6 2 -6 -7 -1 -8 5 -12 4 -7 0 11 -13 47 -16 47 -5
0 6 -4 10 -10 10 -5 0 -10 19 -10 43 0 38 3 43 24 45 22 1 44 -23 31 -36 -3
-3 -5 0 -5 6 0 7 -7 12 -15 12 -11 0 -15 -11 -15 -36 0 -29 3 -35 16 -30 15 6
15 4 3 -11 -8 -9 -9 -14 -3 -10 6 3 25 2 43 -3 17 -5 31 -5 31 0 0 5 17 6 38
3 20 -2 48 -4 62 -4 14 0 35 1 47 1 12 0 25 5 28 10 4 6 12 7 18 3 7 -4 40 -8
74 -8 55 -1 61 1 57 18 -2 10 -9 26 -16 34 -11 14 -10 15 8 9 24 -7 53 17 34
29 -6 4 -9 1 -8 -6 2 -6 -3 -14 -10 -16 -16 -6 -12 30 7 67 l12 25 -20 -22
c-19 -23 -38 -32 -26 -13 3 6 1 10 -4 10 -6 0 -11 -5 -11 -11 0 -5 -5 -7 -10
-4 -8 5 -7 12 2 23 7 10 8 14 4 10 -5 -4 -15 -3 -23 3 -9 8 -17 8 -25 1 -8 -5
-22 -6 -33 -1 -32 13 -50 10 -67 -10z m120 -42 l-3 -38 20 19 c28 26 43 26 20
0 -18 -20 -18 -21 5 -45 18 -19 20 -25 8 -25 -9 0 -23 10 -31 23 l-16 22 0
-22 c-1 -13 -5 -23 -11 -23 -6 0 -10 30 -10 71 0 48 3 68 11 63 6 -3 9 -24 7
-45z m-302 14 c-10 -10 -19 5 -10 18 6 11 8 11 12 0 2 -7 1 -15 -2 -18z m234
17 c0 -5 -7 -10 -15 -10 -8 0 -15 -4 -15 -10 0 -5 8 -10 18 -10 16 -1 16 -1 0
-11 -12 -6 -18 -22 -18 -44 0 -19 -5 -35 -11 -35 -6 0 -9 14 -6 35 3 20 0 36
-7 39 -8 3 -8 7 0 13 6 4 13 16 17 26 7 18 37 24 37 7z m30 -4 c0 -3 -4 -8
-10 -11 -5 -3 -10 -1 -10 4 0 6 5 11 10 11 6 0 10 -2 10 -4z m-170 -14 c0 -13
-12 -22 -22 -16 -10 6 -1 24 13 24 5 0 9 -4 9 -8z m-29 -58 l5 -42 -35 2 c-29
1 -36 5 -36 21 0 14 8 21 28 23 16 2 26 8 24 15 -2 7 -14 11 -26 10 -11 -2
-21 2 -21 8 0 6 12 9 28 7 23 -3 28 -8 33 -44z m87 34 c21 -21 13 -38 -18 -38
-16 0 -30 -4 -30 -9 0 -12 27 -22 44 -15 7 3 16 -1 19 -8 4 -12 -6 -14 -56 -9
-4 1 -12 12 -18 25 -21 45 26 87 59 54z m109 -33 c1 -25 -3 -45 -8 -45 -5 0
-9 20 -9 45 0 25 4 45 8 45 4 0 8 -20 9 -45z"/>
<path d="M3030 3775 c0 -8 6 -15 14 -15 8 0 16 7 20 15 4 10 -1 15 -14 15 -11
0 -20 -7 -20 -15z"/>
<path d="M3127 3824 c-13 -13 -7 -24 14 -24 11 0 19 5 17 12 -5 14 -22 21 -31
12z"/>
<path d="M3401 3781 c-7 -5 -9 -11 -5 -14 5 -3 15 1 22 9 14 16 5 18 -17 5z"/>
<path d="M3426 3747 c3 -10 9 -15 12 -12 3 3 0 11 -7 18 -10 9 -11 8 -5 -6z"/>
<path d="M1911 3604 c0 -11 3 -14 6 -6 3 7 2 16 -1 19 -3 4 -6 -2 -5 -13z"/>
<path d="M2627 3543 c4 -10 88 -13 373 -13 285 0 369 3 373 13 3 9 -75 12
-373 12 -298 0 -376 -3 -373 -12z"/>
<path d="M2526 3183 c-6 -14 -5 -15 5 -6 7 7 10 15 7 18 -3 3 -9 -2 -12 -12z"/>
<path d="M3460 3191 c0 -6 4 -13 10 -16 6 -3 7 1 4 9 -7 18 -14 21 -14 7z"/>
<path d="M2286 2703 c-6 -14 -5 -15 5 -6 7 7 10 15 7 18 -3 3 -9 -2 -12 -12z"/>
<path d="M3700 2711 c0 -6 4 -13 10 -16 6 -3 7 1 4 9 -7 18 -14 21 -14 7z"/>
<path d="M2140 2441 c0 -6 4 -13 10 -16 6 -3 7 1 4 9 -7 18 -14 21 -14 7z"/>
<path d="M3876 2405 c4 -8 15 -15 27 -15 23 0 22 2 -10 19 -19 10 -22 9 -17
-4z"/>
<path d="M2090 2400 c0 -5 7 -10 15 -10 8 0 15 5 15 10 0 6 -7 10 -15 10 -8 0
-15 -4 -15 -10z"/>
<path d="M2160 2400 c0 -5 9 -10 20 -10 11 0 20 5 20 10 0 6 -9 10 -20 10 -11
0 -20 -4 -20 -10z"/>
<path d="M2230 2400 c0 -5 9 -10 20 -10 11 0 20 5 20 10 0 6 -9 10 -20 10 -11
0 -20 -4 -20 -10z"/>
<path d="M2310 2400 c0 -5 9 -10 20 -10 11 0 20 5 20 10 0 6 -9 10 -20 10 -11
0 -20 -4 -20 -10z"/>
<path d="M2380 2400 c0 -5 9 -10 20 -10 11 0 20 5 20 10 0 6 -9 10 -20 10 -11
0 -20 -4 -20 -10z"/>
<path d="M2460 2400 c0 -5 9 -10 20 -10 11 0 20 5 20 10 0 6 -9 10 -20 10 -11
0 -20 -4 -20 -10z"/>
<path d="M2530 2400 c0 -5 9 -10 20 -10 11 0 20 5 20 10 0 6 -9 10 -20 10 -11
0 -20 -4 -20 -10z"/>
<path d="M2610 2400 c0 -5 9 -10 20 -10 11 0 20 5 20 10 0 6 -9 10 -20 10 -11
0 -20 -4 -20 -10z"/>
<path d="M2680 2400 c0 -5 9 -10 20 -10 11 0 20 5 20 10 0 6 -9 10 -20 10 -11
0 -20 -4 -20 -10z"/>
<path d="M2760 2400 c0 -5 9 -10 20 -10 11 0 20 5 20 10 0 6 -9 10 -20 10 -11
0 -20 -4 -20 -10z"/>
<path d="M2830 2400 c0 -5 9 -10 20 -10 11 0 20 5 20 10 0 6 -9 10 -20 10 -11
0 -20 -4 -20 -10z"/>
<path d="M2910 2400 c0 -5 9 -10 20 -10 11 0 20 5 20 10 0 6 -9 10 -20 10 -11
0 -20 -4 -20 -10z"/>
<path d="M2980 2400 c0 -5 9 -10 20 -10 11 0 20 5 20 10 0 6 -9 10 -20 10 -11
0 -20 -4 -20 -10z"/>
<path d="M3060 2400 c0 -5 9 -10 20 -10 11 0 20 5 20 10 0 6 -9 10 -20 10 -11
0 -20 -4 -20 -10z"/>
<path d="M3130 2400 c0 -5 9 -10 20 -10 11 0 20 5 20 10 0 6 -9 10 -20 10 -11
0 -20 -4 -20 -10z"/>
<path d="M3210 2400 c0 -5 9 -10 20 -10 11 0 20 5 20 10 0 6 -9 10 -20 10 -11
0 -20 -4 -20 -10z"/>
<path d="M3280 2400 c0 -5 9 -10 20 -10 11 0 20 5 20 10 0 6 -9 10 -20 10 -11
0 -20 -4 -20 -10z"/>
<path d="M3360 2400 c0 -5 9 -10 20 -10 11 0 20 5 20 10 0 6 -9 10 -20 10 -11
0 -20 -4 -20 -10z"/>
<path d="M3430 2400 c0 -5 9 -10 20 -10 11 0 20 5 20 10 0 6 -9 10 -20 10 -11
0 -20 -4 -20 -10z"/>
<path d="M3510 2400 c0 -5 9 -10 20 -10 11 0 20 5 20 10 0 6 -9 10 -20 10 -11
0 -20 -4 -20 -10z"/>
<path d="M3580 2400 c0 -5 9 -10 20 -10 11 0 20 5 20 10 0 6 -9 10 -20 10 -11
0 -20 -4 -20 -10z"/>
<path d="M3660 2400 c0 -5 9 -10 20 -10 11 0 20 5 20 10 0 6 -9 10 -20 10 -11
0 -20 -4 -20 -10z"/>
<path d="M3730 2400 c0 -5 9 -10 20 -10 11 0 20 5 20 10 0 6 -9 10 -20 10 -11
0 -20 -4 -20 -10z"/>
<path d="M3810 2400 c0 -5 9 -10 20 -10 11 0 20 5 20 10 0 6 -9 10 -20 10 -11
0 -20 -4 -20 -10z"/>
<path d="M2850 2176 c0 -6 9 -12 20 -12 11 0 20 3 20 7 0 4 -9 9 -20 12 -12 3
-20 0 -20 -7z"/>
<path d="M2033 2173 c9 -2 23 -2 30 0 6 3 -1 5 -18 5 -16 0 -22 -2 -12 -5z"/>
<path d="M2100 2171 c0 -5 9 -7 20 -4 11 3 20 7 20 9 0 2 -9 4 -20 4 -11 0
-20 -4 -20 -9z"/>
<path d="M2166 2172 c-3 -5 8 -6 25 -4 16 2 29 6 29 8 0 8 -49 4 -54 -4z"/>
<path d="M2250 2171 c0 -5 9 -7 20 -4 11 3 20 7 20 9 0 2 -9 4 -20 4 -11 0
-20 -4 -20 -9z"/>
<path d="M2310 2170 c-11 -7 -11 -10 -2 -10 7 0 10 -5 6 -12 -4 -7 -3 -8 5 -4
6 4 9 11 6 16 -3 5 7 11 22 13 27 4 27 4 3 5 -14 1 -32 -3 -40 -8z"/>
<path d="M2408 2173 c6 -2 18 -2 25 0 6 3 1 5 -13 5 -14 0 -19 -2 -12 -5z"/>
<path d="M2470 2176 c0 -2 9 -6 20 -9 11 -3 20 -1 20 4 0 5 -9 9 -20 9 -11 0
-20 -2 -20 -4z"/>
<path d="M2550 2173 c0 -5 11 -9 25 -9 14 -1 22 2 19 7 -6 11 -44 12 -44 2z"/>
<path d="M2620 2176 c0 -2 9 -6 20 -9 11 -3 20 -1 20 4 0 5 -9 9 -20 9 -11 0
-20 -2 -20 -4z"/>
<path d="M2700 2171 c0 -5 9 -7 20 -4 11 3 20 7 20 9 0 2 -9 4 -20 4 -11 0
-20 -4 -20 -9z"/>
<path d="M2783 2173 c9 -2 23 -2 30 0 6 3 -1 5 -18 5 -16 0 -22 -2 -12 -5z"/>
<path d="M2928 2173 c6 -2 18 -2 25 0 6 3 1 5 -13 5 -14 0 -19 -2 -12 -5z"/>
<path d="M3000 2171 c0 -5 9 -7 20 -4 11 3 20 7 20 9 0 2 -9 4 -20 4 -11 0
-20 -4 -20 -9z"/>
<path d="M3083 2173 c9 -2 23 -2 30 0 6 3 -1 5 -18 5 -16 0 -22 -2 -12 -5z"/>
<path d="M3150 2163 c0 -14 2 -15 9 -4 5 7 14 10 20 7 6 -4 11 -2 11 3 0 6 -9
11 -20 11 -12 0 -20 -7 -20 -17z"/>
<path d="M3233 2173 c9 -2 23 -2 30 0 6 3 -1 5 -18 5 -16 0 -22 -2 -12 -5z"/>
<path d="M3300 2171 c0 -5 9 -7 20 -4 11 3 20 7 20 9 0 2 -9 4 -20 4 -11 0
-20 -4 -20 -9z"/>
<path d="M3366 2172 c-3 -5 8 -6 25 -4 16 2 29 6 29 8 0 8 -49 4 -54 -4z"/>
<path d="M3450 2171 c0 -5 9 -7 20 -4 11 3 20 7 20 9 0 2 -9 4 -20 4 -11 0
-20 -4 -20 -9z"/>
<path d="M3510 2170 c-11 -7 -11 -10 -2 -10 7 0 10 -5 6 -12 -4 -7 -3 -8 5 -4
6 4 9 11 6 16 -3 5 7 11 22 13 27 4 27 4 3 5 -14 1 -32 -3 -40 -8z"/>
<path d="M3608 2173 c6 -2 18 -2 25 0 6 3 1 5 -13 5 -14 0 -19 -2 -12 -5z"/>
<path d="M3670 2176 c0 -2 9 -6 20 -9 11 -3 20 -1 20 4 0 5 -9 9 -20 9 -11 0
-20 -2 -20 -4z"/>
<path d="M3750 2173 c0 -5 11 -9 25 -9 14 -1 22 2 19 7 -6 11 -44 12 -44 2z"/>
<path d="M3820 2176 c0 -2 9 -6 20 -9 11 -3 20 -1 20 4 0 5 -9 9 -20 9 -11 0
-20 -2 -20 -4z"/>
<path d="M3900 2171 c0 -5 9 -7 20 -4 11 3 20 7 20 9 0 2 -9 4 -20 4 -11 0
-20 -4 -20 -9z"/>
<path d="M3983 2173 c9 -2 23 -2 30 0 6 3 -1 5 -18 5 -16 0 -22 -2 -12 -5z"/>
<path d="M1989 2158 c-5 -18 -6 -38 -1 -34 7 8 12 36 6 36 -2 0 -4 -1 -5 -2z"/>
<path d="M1935 2059 c-4 -6 -5 -12 -2 -15 2 -3 7 2 10 11 7 17 1 20 -8 4z"/>
<path d="M2025 1990 c0 -38 3 -56 10 -49 5 5 10 27 10 49 0 22 -5 44 -10 49
-7 7 -10 -11 -10 -49z"/>
<path d="M1993 1995 c0 -27 2 -38 4 -22 2 15 2 37 0 50 -2 12 -4 0 -4 -28z"/>
<path d="M1924 2009 c-5 -9 -2 -10 9 -6 9 3 19 2 22 -2 2 -5 -4 -11 -15 -14
-30 -8 -25 -37 6 -37 23 0 25 3 22 32 -3 34 -29 50 -44 27z m36 -39 c0 -5 -7
-10 -15 -10 -8 0 -15 5 -15 10 0 6 7 10 15 10 8 0 15 -4 15 -10z"/>
<path d="M1888 1980 c2 -16 7 -30 11 -30 4 0 6 14 3 30 -2 17 -7 30 -11 30 -4
0 -6 -13 -3 -30z"/>
<path d="M1806 1743 c-6 -14 -5 -15 5 -6 7 7 10 15 7 18 -3 3 -9 -2 -12 -12z"/>
<path d="M4180 1751 c0 -6 4 -13 10 -16 6 -3 7 1 4 9 -7 18 -14 21 -14 7z"/>
<path d="M2406 838 c3 -5 10 -6 15 -3 13 9 11 12 -6 12 -8 0 -12 -4 -9 -9z"/>
<path d="M3549 833 c-13 -16 -12 -17 4 -4 16 13 21 21 13 21 -2 0 -10 -8 -17
-17z"/>
<path d="M1631 1544 c0 -11 3 -14 6 -6 3 7 2 16 -1 19 -3 4 -6 -2 -5 -13z"/>
<path d="M1850 1403 c-14 -7 -31 -11 -38 -8 -7 3 -11 1 -8 -4 3 -5 -6 -12 -21
-16 -14 -3 -29 -2 -32 4 -4 6 -12 6 -20 1 -18 -10 -43 -1 -34 13 3 5 1 7 -5 3
-6 -3 -13 -2 -17 3 -3 6 -19 9 -34 8 -21 -1 -26 -5 -20 -13 7 -8 0 -13 -21
-16 -17 -3 -33 -1 -36 4 -3 5 -10 6 -15 2 -5 -3 -7 -9 -4 -14 3 -5 1 -11 -5
-15 -9 -5 -14 7 -11 27 1 7 -33 3 -48 -7 -5 -3 -12 4 -16 15 -3 11 -14 20 -23
20 -16 -1 -15 -2 1 -11 20 -12 23 -31 3 -23 -8 3 -17 0 -21 -5 -3 -6 -10 -9
-14 -6 -5 2 -16 -4 -25 -14 -15 -17 -15 -20 5 -45 29 -37 16 -45 -16 -10 l-26
29 3 -31 c3 -23 1 -31 -9 -27 -17 6 -18 113 -2 113 7 0 9 -11 6 -26 l-5 -27
30 32 c21 23 33 29 38 21 5 -8 10 -9 14 -2 10 16 -32 36 -48 23 -9 -7 -16 -7
-25 2 -10 9 -14 8 -22 -6 -6 -9 -13 -16 -17 -13 -4 2 -7 -22 -7 -55 0 -32 4
-59 8 -59 5 0 6 -4 3 -8 -6 -11 34 -9 52 1 6 5 12 4 12 -2 0 -10 25 -9 36 2 3
3 13 -1 21 -9 12 -12 18 -12 31 -2 12 10 14 10 8 0 -4 -7 -1 -15 8 -18 9 -3
14 -9 11 -14 -2 -4 8 -7 24 -6 16 1 27 6 24 12 -2 6 3 17 11 24 9 7 13 17 9
23 -3 6 -1 7 6 3 6 -4 9 -11 7 -14 -2 -4 22 -8 54 -8 35 0 56 4 53 10 -4 5 -1
6 8 0 24 -15 60 -16 77 -2 12 10 14 10 8 1 -9 -16 37 -18 65 -3 10 6 19 7 19
3 0 -4 20 -8 44 -9 29 0 43 3 40 11 -3 7 2 18 11 25 13 11 13 15 3 21 -10 7
-9 12 5 26 16 16 17 16 17 0 0 -11 4 -15 12 -11 7 4 8 3 4 -5 -11 -17 -15 -61
-5 -56 4 3 10 1 14 -4 3 -5 14 -9 25 -8 10 1 17 3 15 6 -3 2 2 15 10 28 10 15
11 23 4 23 -6 0 -9 9 -6 20 3 11 1 20 -5 20 -5 0 -6 5 -3 10 4 6 12 7 18 4 7
-4 9 -4 5 1 -4 4 -3 17 3 29 9 18 8 18 -9 -3 -16 -20 -20 -21 -25 -7 -4 9 -1
16 5 16 6 0 9 2 7 5 -8 7 -79 -17 -74 -25 6 -10 -35 -63 -43 -56 -2 3 0 11 6
18 8 10 1 21 -26 44 -34 27 -39 29 -62 17z m-180 -73 c0 -33 -4 -60 -10 -60
-6 0 -10 27 -10 60 0 33 4 60 10 60 6 0 10 -27 10 -60z m180 56 c0 -2 -7 -7
-16 -10 -8 -3 -12 -2 -9 4 6 10 25 14 25 6z m32 -33 l-3 -38 21 24 c11 13 23
21 26 19 3 -3 -3 -13 -12 -22 -15 -16 -15 -18 1 -36 10 -11 16 -23 12 -26 -3
-3 -12 3 -19 15 -17 27 -26 27 -30 -1 -3 -13 -6 5 -9 40 -2 39 0 62 6 62 7 0
10 -16 7 -37z m148 -28 c0 -30 -4 -55 -10 -55 -5 0 -10 21 -10 46 0 27 -4 43
-10 39 -5 -3 -10 -2 -10 3 0 13 11 22 27 22 9 0 13 -16 13 -55z m-195 21 c2
-6 6 -25 9 -42 5 -29 3 -31 -25 -32 -37 -1 -51 25 -24 44 10 7 22 11 26 8 5
-3 9 0 9 5 0 6 -11 11 -24 11 -24 0 -41 12 -30 22 8 9 55 -4 59 -16z m-357 2
c22 -22 13 -38 -20 -38 -36 0 -28 -16 12 -22 23 -4 23 -5 6 -13 -38 -17 -73
37 -46 71 15 17 32 18 48 2z m43 -25 l13 -38 9 38 c5 20 13 37 19 37 23 0 -31
-114 -57 -118 -20 -4 -20 -4 0 11 19 15 19 17 3 61 -9 25 -13 46 -8 46 5 0 14
-17 21 -37z m119 28 c0 -5 -10 -11 -22 -13 -32 -4 -31 -40 2 -49 22 -5 23 -7
7 -14 -36 -15 -64 44 -35 73 14 14 48 16 48 3z m106 1 c21 -14 23 -41 4 -64
-15 -19 -22 -21 -37 -12 -22 14 -29 50 -13 70 14 15 29 18 46 6z"/>
<path d="M1795 1300 c-3 -5 3 -10 14 -10 12 0 21 5 21 10 0 6 -6 10 -14 10 -8
0 -18 -4 -21 -10z"/>
<path d="M1440 1330 c0 -5 7 -10 15 -10 8 0 15 5 15 10 0 6 -7 10 -15 10 -8 0
-15 -4 -15 -10z"/>
<path d="M1706 1331 c-10 -16 5 -42 23 -39 21 4 21 42 -1 46 -9 2 -19 -1 -22
-7z"/>
<path d="M1560 1229 c0 -5 5 -7 10 -4 6 3 10 8 10 11 0 2 -4 4 -10 4 -5 0 -10
-5 -10 -11z"/>
<path d="M1451 1194 c0 -11 3 -14 6 -6 3 7 2 16 -1 19 -3 4 -6 -2 -5 -13z"/>
<path d="M4348 1583 c-3 -13 -2 -23 3 -23 5 0 9 -7 9 -17 0 -9 3 -14 6 -11 3
3 1 21 -4 39 -7 31 -9 32 -14 12z"/>
<path d="M4285 1411 c6 -11 4 -13 -9 -8 -9 4 -15 3 -12 -2 3 -4 -6 -13 -19
-19 -27 -12 -33 -4 -12 17 8 10 8 12 0 7 -12 -7 -40 -61 -67 -128 -9 -24 -22
-38 -32 -38 -16 0 -16 1 1 14 18 13 18 15 1 56 -9 23 -14 45 -12 48 3 3 12 -9
19 -27 14 -32 27 -32 27 0 0 10 6 22 13 26 6 4 13 18 13 30 1 19 -2 21 -17 12
-10 -5 -16 -16 -13 -24 4 -8 1 -15 -5 -15 -6 0 -11 4 -11 9 0 5 -14 8 -30 7
-22 -2 -29 2 -26 11 3 7 2 12 -2 12 -4 -1 -9 0 -12 1 -3 1 -34 3 -69 4 -59 2
-64 0 -74 -24 -14 -34 -14 -52 -2 -69 7 -10 7 -13 0 -9 -6 4 -11 -2 -11 -12 0
-10 3 -17 7 -14 4 2 9 -1 11 -8 5 -13 48 -19 48 -6 0 4 5 8 11 8 5 0 8 -4 4
-9 -3 -6 15 -8 45 -7 27 2 47 0 45 -4 -2 -4 3 -16 11 -26 9 -10 13 -13 9 -7
-5 10 0 11 20 3 14 -5 24 -6 21 -1 -3 4 6 14 20 21 18 10 21 16 12 22 -10 6
-8 8 4 8 9 0 19 -4 22 -9 5 -8 146 -9 171 -1 6 2 18 0 27 -4 22 -10 55 -4 48
9 -3 5 -15 8 -26 7 -13 -2 -24 4 -28 13 -8 22 1 35 25 35 26 0 24 18 -3 23
-20 3 -21 4 -5 11 31 14 47 -1 47 -44 0 -22 5 -40 11 -40 5 0 8 -4 5 -8 -2 -4
19 -8 49 -8 44 0 52 2 47 15 -4 12 1 11 19 -5 17 -15 32 -19 53 -15 42 8 29
25 -16 22 -21 -1 -38 1 -38 4 0 4 14 23 30 42 32 36 31 58 -1 50 -23 -6 -25 8
-3 17 20 8 44 -10 44 -32 0 -9 -9 -26 -21 -38 l-20 -22 31 -4 c35 -5 49 6 24
20 -12 7 -13 11 -5 16 7 4 18 3 26 -4 11 -9 13 -7 10 7 -2 10 -4 20 -5 23 -1
3 -2 9 -1 13 1 5 -4 5 -10 1 -8 -5 -10 -2 -6 9 7 19 -15 30 -69 32 -36 2 -40
-1 -38 -19 1 -12 3 -23 4 -26 1 -3 2 -9 1 -13 -1 -5 3 -6 8 -3 5 4 12 2 16 -4
3 -5 -1 -10 -10 -10 -9 0 -13 -4 -10 -10 3 -5 1 -10 -5 -10 -6 0 -8 -5 -5 -11
4 -6 -2 -5 -14 2 -18 12 -19 16 -7 34 11 17 11 22 0 33 -8 7 -19 10 -24 7 -6
-4 -7 1 -3 11 4 11 3 15 -4 11 -6 -4 -13 -1 -16 5 -3 10 -9 10 -24 1 -13 -7
-25 -8 -32 -2 -8 6 -8 5 -1 -3 16 -19 12 -23 -19 -23 -16 0 -27 3 -25 7 2 4
-1 10 -7 14 -7 4 -9 3 -6 -2 9 -15 -11 -42 -20 -28 -10 13 -46 27 -39 15 4 -5
-3 -7 -14 -4 -19 5 -20 6 -3 19 17 13 17 14 0 8 -9 -3 -25 0 -34 7 -14 12 -16
12 -8 0z m-211 -19 c2 -4 -5 -9 -16 -9 -11 -1 -31 -12 -44 -24 l-23 -22 31
-40 c26 -33 28 -38 10 -28 -12 6 -26 20 -32 31 -15 28 -30 25 -30 -7 0 -14 -3
-24 -6 -20 -9 9 -10 107 -2 107 5 0 8 -12 8 -26 l0 -27 21 27 c28 35 72 55 83
38z m218 -59 c-6 -78 -12 -80 -12 -5 0 34 4 62 8 62 5 0 6 -26 4 -57z m218 25
c0 -29 1 -30 18 -15 26 24 39 21 17 -3 -16 -18 -17 -22 -3 -37 39 -46 32 -59
-9 -15 l-26 27 5 -27 c4 -19 1 -25 -9 -21 -16 6 -19 123 -3 123 6 0 10 -14 10
-32z m-402 -25 c3 -19 -1 -23 -22 -23 -14 0 -26 -4 -26 -10 0 -5 11 -10 25
-10 14 0 25 -4 25 -10 0 -16 -37 -12 -54 6 -19 18 -20 28 -5 55 14 27 53 21
57 -8z m152 17 c0 -5 -9 -10 -20 -10 -15 0 -20 -7 -20 -25 0 -18 5 -25 19 -25
10 0 21 -6 24 -14 8 -20 -43 -5 -57 16 -14 23 8 68 34 68 11 0 20 -4 20 -10z
m118 -2 c7 -7 12 -21 12 -33 0 -46 -53 -62 -71 -21 -21 45 26 87 59 54z m327
-8 c3 -6 -1 -7 -9 -4 -18 7 -21 14 -7 14 6 0 13 -4 16 -10z"/>
<path d="M4060 1330 c0 -5 9 -10 20 -10 11 0 20 5 20 10 0 6 -9 10 -20 10 -11
0 -20 -4 -20 -10z"/>
<path d="M4330 1315 c0 -18 5 -25 20 -25 15 0 20 7 20 25 0 18 -5 25 -20 25
-15 0 -20 -7 -20 -25z"/>
<path d="M4420 1300 c0 -5 7 -10 15 -10 8 0 15 5 15 10 0 6 -7 10 -15 10 -8 0
-15 -4 -15 -10z"/>
<path d="M2793 597 c0 -8 6 -14 14 -14 9 0 10 4 2 14 -6 7 -12 13 -14 13 -1 0
-2 -6 -2 -13z"/>
<path d="M2855 601 c-6 -11 13 -26 22 -17 4 3 1 6 -6 6 -7 0 -9 5 -6 10 3 6 4
10 1 10 -3 0 -7 -4 -11 -9z"/>
<path d="M2660 593 c0 -6 -9 -15 -20 -18 -17 -5 -20 -15 -20 -59 0 -75 20 -90
59 -46 l29 33 -3 -26 c-2 -15 0 -26 3 -25 4 1 15 -2 26 -7 11 -5 26 -4 37 3
12 8 20 8 24 1 4 -6 24 -7 49 -4 34 5 45 3 60 -14 23 -25 58 -27 77 -5 7 9 24
20 37 25 14 6 21 14 16 21 -4 7 3 3 15 -9 23 -24 61 -31 61 -11 0 9 3 9 12 0
18 -18 55 -15 63 6 6 16 7 16 21 -2 8 -11 14 -17 14 -13 0 4 13 1 30 -8 16 -8
35 -15 42 -14 7 0 3 5 -9 11 -13 6 -23 15 -23 20 0 4 -6 8 -13 8 -20 0 -47 33
-47 58 0 40 60 61 82 28 11 -16 10 -64 -2 -71 -6 -4 -8 -11 -4 -16 3 -5 10 -7
15 -4 5 4 9 1 9 -4 0 -17 66 -13 81 5 10 13 8 19 -14 40 -15 14 -25 29 -22 34
3 5 0 21 -8 36 -12 22 -15 24 -28 12 -14 -15 -43 -13 -34 2 3 4 -2 11 -11 14
-10 4 -13 2 -8 -6 5 -7 -1 -9 -19 -6 -16 3 -24 1 -20 -5 4 -6 -4 -7 -23 -2
-16 4 -36 8 -44 8 -8 0 -22 5 -30 11 -12 9 -13 8 -4 -4 21 -27 -7 -38 -75 -31
-11 1 -11 4 0 19 12 15 12 16 -2 5 -9 -7 -19 -10 -23 -6 -4 4 -4 -1 0 -12 6
-16 5 -18 -7 -7 -7 6 -18 12 -24 12 -5 0 -3 -5 5 -10 9 -6 10 -10 3 -10 -6 0
-15 5 -18 10 -3 6 -11 10 -16 10 -6 0 -8 -3 -6 -7 3 -5 -6 -9 -19 -9 -13 -1
-21 2 -18 7 3 5 -6 9 -20 9 -14 0 -28 -5 -31 -11 -5 -6 -12 -4 -22 8 -8 10
-11 12 -7 4 5 -11 2 -13 -14 -9 -13 4 -20 2 -19 -6 1 -6 -5 -9 -13 -7 -8 2
-31 4 -50 4 -30 -1 -32 0 -12 8 12 5 22 10 22 12 0 2 -10 3 -22 2 -13 -1 -29
2 -35 8 -7 5 -13 6 -13 1 0 -5 -5 -2 -10 6 -6 9 -10 10 -10 3z m670 -68 c0
-41 2 -45 25 -45 14 0 25 -4 25 -10 0 -5 -16 -10 -35 -10 l-35 0 0 55 c0 30 5
55 10 55 6 0 10 -20 10 -45z m-627 23 c6 -19 -11 -48 -28 -48 -8 0 -15 -9 -15
-20 0 -11 -4 -20 -10 -20 -5 0 -10 23 -10 50 0 49 1 50 29 50 16 0 31 -6 34
-12z m197 -11 c12 -4 11 -6 -2 -6 -23 -1 -25 -51 -3 -51 8 0 15 8 15 19 0 24
20 40 48 38 21 -1 23 -6 20 -52 -3 -44 -6 -50 -27 -53 -13 -2 -28 2 -35 8 -8
9 -6 11 9 10 36 -4 40 0 15 14 -17 8 -29 10 -38 3 -17 -14 -30 1 -32 38 -3 46
-1 62 8 49 4 -6 14 -14 22 -17z m290 14 c0 -4 -11 -6 -25 -3 -33 6 -32 -7 2
-34 24 -19 26 -24 14 -38 -15 -18 -47 -21 -56 -6 -4 6 5 10 19 10 31 0 34 15
6 30 -11 6 -20 20 -20 30 0 16 7 20 30 20 17 0 30 -4 30 -9z m-410 -26 c26
-31 -13 -82 -44 -56 -16 14 -22 52 -9 64 11 12 40 8 53 -8z m70 5 c0 -5 -7 -7
-15 -4 -20 8 -19 -6 2 -21 21 -16 10 -45 -17 -45 -11 0 -20 5 -20 11 0 6 6 9
14 6 24 -9 26 5 4 23 -12 9 -18 22 -14 28 9 14 46 16 46 2z m175 -10 c-11 -12
-14 -26 -10 -39 4 -12 2 -21 -4 -21 -6 0 -11 17 -11 38 0 31 4 38 21 39 20 2
20 1 4 -17z m85 0 c9 -18 8 -20 -15 -20 -14 0 -25 -4 -25 -10 0 -5 9 -10 20
-10 11 0 20 -4 20 -10 0 -14 -33 -13 -48 2 -23 23 -7 68 25 68 7 0 17 -9 23
-20z"/>
<path d="M2660 531 c0 -14 5 -19 15 -14 17 6 15 25 -3 31 -7 2 -12 -5 -12 -17z"/>
<path d="M2936 523 c-12 -12 -6 -43 9 -43 8 0 15 9 15 19 0 21 -13 34 -24 24z"/>
<path d="M2736 515 c-8 -21 1 -35 20 -35 10 0 14 8 12 22 -4 27 -23 34 -32 13z"/>
<path d="M3070 520 c0 -5 7 -10 16 -10 8 0 12 5 9 10 -3 6 -10 10 -16 10 -5 0
-9 -4 -9 -10z"/>
<path d="M3224 536 c-10 -26 1 -51 23 -54 14 -2 23 3 28 18 12 37 -38 71 -51
36z m29 -21 c-3 -9 -8 -14 -10 -11 -3 3 -2 9 2 15 9 16 15 13 8 -4z"/>
<path d="M372 4040 c0 -14 2 -19 5 -12 2 6 2 18 0 25 -3 6 -5 1 -5 -13z"/>
<path d="M5622 4040 c0 -14 2 -19 5 -12 2 6 2 18 0 25 -3 6 -5 1 -5 -13z"/>
<path d="M5622 3970 c0 -14 2 -19 5 -12 2 6 2 18 0 25 -3 6 -5 1 -5 -13z"/>
<path d="M372 3960 c0 -14 2 -19 5 -12 2 6 2 18 0 25 -3 6 -5 1 -5 -13z"/>
<path d="M372 3890 c0 -14 2 -19 5 -12 2 6 2 18 0 25 -3 6 -5 1 -5 -13z"/>
<path d="M5622 3890 c0 -14 2 -19 5 -12 2 6 2 18 0 25 -3 6 -5 1 -5 -13z"/>
<path d="M5619 3838 c-4 -15 -4 -69 1 -93 5 -21 7 -12 7 33 1 34 -1 62 -3 62
-2 0 -4 -1 -5 -2z"/>
<path d="M372 3810 c0 -14 2 -19 5 -12 2 6 2 18 0 25 -3 6 -5 1 -5 -13z"/>
<path d="M372 3740 c0 -14 2 -19 5 -12 2 6 2 18 0 25 -3 6 -5 1 -5 -13z"/>
<path d="M372 3665 c0 -16 2 -22 5 -12 2 9 2 23 0 30 -3 6 -5 -1 -5 -18z"/>
<path d="M5622 3670 c0 -14 2 -19 5 -12 2 6 2 18 0 25 -3 6 -5 1 -5 -13z"/>
<path d="M367 3590 c-3 -11 -1 -20 4 -20 5 0 9 9 9 20 0 11 -2 20 -4 20 -2 0
-6 -9 -9 -20z"/>
<path d="M5622 3590 c0 -14 2 -19 5 -12 2 6 2 18 0 25 -3 6 -5 1 -5 -13z"/>
<path d="M374 3525 c-3 -8 -4 -20 -2 -27 3 -7 7 -1 10 15 6 29 1 36 -8 12z"/>
<path d="M5621 3533 c0 -6 -4 -20 -7 -30 -5 -14 -4 -15 5 -7 7 7 11 20 8 30
-3 11 -5 14 -6 7z"/>
<path d="M367 3440 c-3 -12 0 -20 7 -20 6 0 12 9 12 20 0 11 -3 20 -7 20 -4 0
-9 -9 -12 -20z"/>
<path d="M5617 3440 c3 -11 7 -20 8 -20 1 0 5 9 8 20 3 12 0 20 -8 20 -8 0
-11 -8 -8 -20z"/>
<path d="M5616 3373 c-4 -9 -2 -21 4 -27 7 -7 10 -2 10 17 0 31 -5 34 -14 10z"/>
<path d="M367 3360 c3 -11 7 -20 9 -20 2 0 4 9 4 20 0 11 -4 20 -9 20 -5 0 -7
-9 -4 -20z"/>
<path d="M367 3290 c-3 -12 0 -20 8 -20 8 0 11 8 8 20 -3 11 -7 20 -8 20 -1 0
-5 -9 -8 -20z"/>
<path d="M5617 3290 c3 -11 7 -20 9 -20 2 0 4 9 4 20 0 11 -4 20 -9 20 -5 0
-7 -9 -4 -20z"/>
<path d="M5617 3233 c-3 -5 -1 -17 4 -28 7 -17 8 -17 8 8 1 27 -4 34 -12 20z"/>
<path d="M367 3210 c3 -11 7 -20 8 -20 1 0 5 9 8 20 3 12 0 20 -8 20 -8 0 -11
-8 -8 -20z"/>
<path d="M367 3140 c-3 -12 0 -20 8 -20 8 0 11 8 8 20 -3 11 -7 20 -8 20 -1 0
-5 -9 -8 -20z"/>
<path d="M5614 3140 c0 -11 4 -20 8 -20 4 0 8 9 8 20 0 11 -4 20 -8 20 -4 0
-8 -9 -8 -20z"/>
<path d="M5618 3065 c-3 -14 -1 -25 3 -25 5 0 9 11 9 25 0 14 -2 25 -4 25 -2
0 -6 -11 -8 -25z"/>
<path d="M370 3060 c0 -11 4 -20 8 -20 4 0 8 9 8 20 0 11 -4 20 -8 20 -4 0 -8
-9 -8 -20z"/>
<path d="M372 2990 c0 -14 2 -19 5 -12 2 6 2 18 0 25 -3 6 -5 1 -5 -13z"/>
<path d="M5617 2990 c3 -11 7 -20 9 -20 2 0 4 9 4 20 0 11 -4 20 -9 20 -5 0
-7 -9 -4 -20z"/>
<path d="M5622 2915 c0 -16 2 -22 5 -12 2 9 2 23 0 30 -3 6 -5 -1 -5 -18z"/>
<path d="M372 2910 c0 -14 2 -19 5 -12 2 6 2 18 0 25 -3 6 -5 1 -5 -13z"/>
<path d="M372 2840 c0 -14 2 -19 5 -12 2 6 2 18 0 25 -3 6 -5 1 -5 -13z"/>
<path d="M5622 2840 c0 -14 2 -19 5 -12 2 6 2 18 0 25 -3 6 -5 1 -5 -13z"/>
<path d="M1614 2839 c-3 -6 -2 -15 3 -20 5 -5 9 -1 9 11 0 23 -2 24 -12 9z"/>
<path d="M1260 2820 c0 -5 5 -10 11 -10 5 0 7 5 4 10 -3 6 -8 10 -11 10 -2 0
-4 -4 -4 -10z"/>
<path d="M1655 2809 c-4 -6 -5 -12 -2 -15 2 -3 7 2 10 11 7 17 1 20 -8 4z"/>
<path d="M1956 2807 c3 -10 9 -15 12 -12 3 3 0 11 -7 18 -10 9 -11 8 -5 -6z"/>
<path d="M5622 2770 c0 -14 2 -19 5 -12 2 6 2 18 0 25 -3 6 -5 1 -5 -13z"/>
<path d="M372 2760 c0 -14 2 -19 5 -12 2 6 2 18 0 25 -3 6 -5 1 -5 -13z"/>
<path d="M1160 2770 c0 -5 7 -10 16 -10 12 0 14 -7 9 -30 -4 -19 -3 -30 4 -30
6 0 11 16 11 36 0 21 4 33 10 29 6 -3 10 -1 10 4 0 6 -13 11 -30 11 -16 0 -30
-4 -30 -10z"/>
<path d="M1232 2743 c-2 -39 0 -43 21 -42 16 1 17 3 5 6 -11 3 -18 17 -21 41
l-4 37 -1 -42z"/>
<path d="M1287 2773 c-13 -13 -7 -32 13 -38 27 -9 25 -25 -2 -26 -19 -1 -20
-2 -4 -6 10 -3 23 0 30 7 8 9 6 16 -11 29 -23 19 -21 34 3 24 8 -3 14 0 14 6
0 12 -32 15 -43 4z"/>
<path d="M1371 2738 c1 -24 3 -35 6 -25 2 9 11 17 19 17 20 0 30 30 13 41 -29
18 -39 10 -38 -33z m39 12 c0 -5 -7 -10 -15 -10 -8 0 -15 5 -15 10 0 6 7 10
15 10 8 0 15 -4 15 -10z"/>
<path d="M1631 2740 c1 -32 3 -38 7 -22 4 13 12 23 17 23 6 0 13 -10 17 -23 6
-21 6 -21 7 5 1 18 -5 30 -16 34 -10 4 -21 11 -25 17 -4 6 -7 -9 -7 -34z"/>
<path d="M1932 2740 c0 -31 2 -38 6 -22 4 13 12 23 17 23 6 0 13 -10 17 -23 6
-19 7 -18 5 7 -1 19 -7 30 -17 30 -8 0 -18 7 -22 15 -4 8 -6 -5 -6 -30z"/>
<path d="M4010 2770 c0 -5 7 -10 15 -10 10 0 13 -9 10 -30 -2 -16 1 -30 6 -30
5 0 9 16 9 36 0 21 4 33 10 29 6 -3 10 -1 10 4 0 6 -13 11 -30 11 -16 0 -30
-4 -30 -10z"/>
<path d="M4082 2743 l-2 -43 44 0 c53 0 68 16 37 39 -23 17 -19 34 5 24 8 -3
14 0 14 7 0 6 -10 10 -22 8 -30 -4 -37 -38 -9 -45 35 -9 24 -23 -18 -23 -39 0
-40 1 -44 38 l-4 37 -1 -42z"/>
<path d="M4221 2738 c1 -24 3 -35 6 -25 2 9 11 17 19 17 20 0 30 30 13 41 -29
18 -39 10 -38 -33z m39 11 c0 -5 -7 -9 -15 -9 -15 0 -20 12 -9 23 8 8 24 -1
24 -14z"/>
<path d="M4482 2740 c0 -31 2 -38 6 -22 4 13 12 23 17 23 6 0 13 -10 17 -23 6
-19 7 -18 5 7 -1 19 -7 30 -17 30 -8 0 -18 7 -22 15 -4 8 -6 -5 -6 -30z"/>
<path d="M4782 2740 c0 -31 2 -38 6 -22 4 13 12 23 17 23 6 0 13 -10 17 -23 6
-19 7 -18 5 7 -1 19 -7 30 -17 30 -8 0 -18 7 -22 15 -4 8 -6 -5 -6 -30z"/>
<path d="M1592 2738 c2 -17 9 -33 16 -36 11 -3 11 -1 0 17 -11 18 -11 23 0 30
11 7 10 9 -3 15 -13 5 -16 0 -13 -26z"/>
<path d="M4442 2738 c2 -17 10 -33 18 -35 12 -4 12 -2 2 5 -14 9 -13 33 1 43
5 3 1 9 -8 13 -13 5 -16 0 -13 -26z"/>
<path d="M1448 2754 c15 -7 16 -44 1 -44 -5 0 -7 5 -4 10 3 6 1 10 -4 10 -6 0
-11 -7 -11 -15 0 -9 10 -15 26 -15 22 0 25 4 22 27 -2 19 -9 29 -23 30 -11 2
-14 0 -7 -3z"/>
<path d="M1494 2748 c-4 -6 1 -17 10 -24 16 -12 16 -13 -1 -17 -14 -4 -14 -5
5 -6 26 -1 30 24 5 34 -17 7 -16 8 2 15 16 7 17 9 3 9 -9 1 -20 -4 -24 -11z"/>
<path d="M1544 2748 c-4 -6 1 -17 10 -24 16 -12 16 -13 -1 -17 -14 -4 -14 -5
5 -6 26 -1 29 16 5 36 -17 14 -17 14 0 9 9 -3 17 -1 17 4 0 14 -27 12 -36 -2z"/>
<path d="M1690 2728 c0 -15 5 -28 10 -28 6 0 10 11 10 24 0 13 6 26 13 29 6 3
2 4 -10 4 -18 -1 -23 -7 -23 -29z"/>
<path d="M1741 2746 c-15 -18 -3 -46 19 -46 24 0 33 15 25 40 -7 23 -28 26
-44 6z m34 -16 c0 -7 -6 -15 -12 -17 -8 -3 -13 4 -13 17 0 13 5 20 13 18 6 -3
12 -11 12 -18z"/>
<path d="M1801 2733 c-1 -29 2 -33 24 -33 22 0 25 4 24 33 -2 30 -2 30 -6 5
-2 -16 -10 -28 -18 -28 -8 0 -16 12 -18 28 -4 25 -4 25 -6 -5z"/>
<path d="M1865 2740 c-8 -24 1 -40 21 -40 8 0 12 -5 9 -10 -4 -6 -11 -8 -16
-5 -5 4 -9 1 -9 -4 0 -14 23 -14 36 -1 5 5 8 26 6 45 -3 26 -9 35 -22 35 -10
0 -21 -9 -25 -20z m35 -10 c0 -19 -11 -26 -23 -14 -8 8 3 34 14 34 5 0 9 -9 9
-20z"/>
<path d="M4298 2754 c15 -7 16 -44 1 -44 -5 0 -7 5 -4 10 3 6 1 10 -4 10 -6 0
-11 -7 -11 -15 0 -9 10 -15 26 -15 22 0 25 4 22 27 -2 19 -9 29 -23 30 -11 2
-14 0 -7 -3z"/>
<path d="M4344 2748 c-4 -6 1 -17 10 -24 16 -12 16 -13 -1 -17 -14 -4 -14 -5
5 -6 26 -1 30 24 5 34 -17 7 -16 8 2 15 16 7 17 9 3 9 -9 1 -20 -4 -24 -11z"/>
<path d="M4390 2745 c0 -9 8 -19 17 -22 15 -6 15 -7 -3 -14 -17 -7 -17 -8 4
-8 26 -1 30 24 5 34 -17 7 -16 8 2 15 19 8 19 9 -2 9 -14 1 -23 -5 -23 -14z"/>
<path d="M4540 2728 c0 -15 5 -28 10 -28 6 0 10 11 10 24 0 13 6 26 13 29 6 3
2 4 -10 4 -18 -1 -23 -7 -23 -29z"/>
<path d="M4591 2746 c-15 -18 -3 -46 19 -46 24 0 33 15 25 40 -7 23 -28 26
-44 6z m34 -16 c0 -7 -6 -15 -12 -17 -8 -3 -13 4 -13 17 0 13 5 20 13 18 6 -3
12 -11 12 -18z"/>
<path d="M4654 2730 c1 -18 7 -26 24 -28 19 -3 22 1 21 30 -2 30 -2 31 -6 6
-5 -34 -30 -37 -36 -5 -3 19 -4 19 -3 -3z"/>
<path d="M4715 2740 c-8 -24 1 -40 21 -40 8 0 12 -5 9 -10 -4 -6 -11 -8 -16
-5 -5 4 -9 1 -9 -5 0 -6 8 -10 17 -8 17 3 37 64 27 80 -10 16 -43 8 -49 -12z
m35 -10 c0 -19 -11 -26 -23 -14 -8 8 3 34 14 34 5 0 9 -9 9 -20z"/>
<path d="M372 2690 c0 -14 2 -19 5 -12 2 6 2 18 0 25 -3 6 -5 1 -5 -13z"/>
<path d="M5622 2690 c0 -14 2 -19 5 -12 2 6 2 18 0 25 -3 6 -5 1 -5 -13z"/>
<path d="M1870 2640 c-9 -6 -10 -10 -3 -10 6 0 15 5 18 10 8 12 4 12 -15 0z"/>
<path d="M5616 2632 c-2 -4 -1 -14 5 -22 7 -12 9 -10 9 8 0 23 -5 28 -14 14z"/>
<path d="M370 2609 c0 -11 4 -18 10 -14 5 3 7 12 3 20 -7 21 -13 19 -13 -6z"/>
<path d="M370 2540 c0 -11 4 -20 8 -20 4 0 8 9 9 20 1 11 -2 20 -8 20 -5 0 -9
-9 -9 -20z"/>
<path d="M5614 2536 c-9 -20 -9 -23 2 -19 8 3 14 14 14 24 0 25 -3 24 -16 -5z"/>
<path d="M390 2478 c0 -9 5 -20 11 -23 17 -11 20 0 4 21 -13 17 -14 17 -15 2z"/>
<path d="M5597 2483 c-4 -3 -7 -13 -7 -21 0 -12 3 -12 15 -2 8 7 15 16 15 21
0 11 -14 12 -23 2z"/>
<path d="M437 2430 c5 -19 29 -34 37 -22 2 4 -6 15 -19 24 -22 17 -23 17 -18
-2z"/>
<path d="M5535 2420 c-3 -5 1 -10 9 -10 8 0 18 5 21 10 3 6 -1 10 -9 10 -8 0
-18 -4 -21 -10z"/>
<path d="M505 2400 c-4 -6 5 -10 19 -10 14 0 26 5 26 10 0 6 -9 10 -19 10 -11
0 -23 -4 -26 -10z"/>
<path d="M580 2400 c0 -5 9 -10 20 -10 11 0 20 5 20 10 0 6 -9 10 -20 10 -11
0 -20 -4 -20 -10z"/>
<path d="M660 2400 c0 -5 9 -10 20 -10 11 0 20 5 20 10 0 6 -9 10 -20 10 -11
0 -20 -4 -20 -10z"/>
<path d="M730 2400 c0 -5 9 -10 20 -10 11 0 20 5 20 10 0 6 -9 10 -20 10 -11
0 -20 -4 -20 -10z"/>
<path d="M810 2400 c0 -5 9 -10 20 -10 11 0 20 5 20 10 0 6 -9 10 -20 10 -11
0 -20 -4 -20 -10z"/>
<path d="M880 2400 c0 -5 9 -10 20 -10 11 0 20 5 20 10 0 6 -9 10 -20 10 -11
0 -20 -4 -20 -10z"/>
<path d="M960 2400 c0 -5 9 -10 20 -10 11 0 20 5 20 10 0 6 -9 10 -20 10 -11
0 -20 -4 -20 -10z"/>
<path d="M1030 2400 c0 -5 9 -10 20 -10 11 0 20 5 20 10 0 6 -9 10 -20 10 -11
0 -20 -4 -20 -10z"/>
<path d="M1110 2400 c0 -5 9 -10 20 -10 11 0 20 5 20 10 0 6 -9 10 -20 10 -11
0 -20 -4 -20 -10z"/>
<path d="M1180 2400 c0 -5 9 -10 20 -10 11 0 20 5 20 10 0 6 -9 10 -20 10 -11
0 -20 -4 -20 -10z"/>
<path d="M1260 2400 c0 -5 9 -10 20 -10 11 0 20 5 20 10 0 6 -9 10 -20 10 -11
0 -20 -4 -20 -10z"/>
<path d="M1330 2400 c0 -5 9 -10 20 -10 11 0 20 5 20 10 0 6 -9 10 -20 10 -11
0 -20 -4 -20 -10z"/>
<path d="M1410 2400 c0 -5 9 -10 20 -10 11 0 20 5 20 10 0 6 -9 10 -20 10 -11
0 -20 -4 -20 -10z"/>
<path d="M1480 2400 c0 -5 9 -10 20 -10 11 0 20 5 20 10 0 6 -9 10 -20 10 -11
0 -20 -4 -20 -10z"/>
<path d="M1560 2400 c0 -5 9 -10 20 -10 11 0 20 5 20 10 0 6 -9 10 -20 10 -11
0 -20 -4 -20 -10z"/>
<path d="M1630 2400 c0 -5 9 -10 20 -10 11 0 20 5 20 10 0 6 -9 10 -20 10 -11
0 -20 -4 -20 -10z"/>
<path d="M1710 2400 c0 -5 9 -10 20 -10 11 0 20 5 20 10 0 6 -9 10 -20 10 -11
0 -20 -4 -20 -10z"/>
<path d="M1780 2400 c0 -5 9 -10 20 -10 11 0 20 5 20 10 0 6 -9 10 -20 10 -11
0 -20 -4 -20 -10z"/>
<path d="M1860 2400 c0 -5 9 -10 20 -10 11 0 20 5 20 10 0 6 -9 10 -20 10 -11
0 -20 -4 -20 -10z"/>
<path d="M1930 2400 c0 -5 9 -10 20 -10 11 0 20 5 20 10 0 6 -9 10 -20 10 -11
0 -20 -4 -20 -10z"/>
<path d="M2010 2400 c0 -5 4 -10 9 -10 6 0 13 5 16 10 3 6 -1 10 -9 10 -9 0
-16 -4 -16 -10z"/>
<path d="M3965 2400 c3 -5 13 -10 21 -10 8 0 14 5 14 10 0 6 -9 10 -21 10 -11
0 -17 -4 -14 -10z"/>
<path d="M4030 2400 c0 -5 9 -10 20 -10 11 0 20 5 20 10 0 6 -9 10 -20 10 -11
0 -20 -4 -20 -10z"/>
<path d="M4110 2400 c0 -5 9 -10 20 -10 11 0 20 5 20 10 0 6 -9 10 -20 10 -11
0 -20 -4 -20 -10z"/>
<path d="M4180 2400 c0 -5 9 -10 20 -10 11 0 20 5 20 10 0 6 -9 10 -20 10 -11
0 -20 -4 -20 -10z"/>
<path d="M4260 2400 c0 -5 9 -10 20 -10 11 0 20 5 20 10 0 6 -9 10 -20 10 -11
0 -20 -4 -20 -10z"/>
<path d="M4330 2400 c0 -5 9 -10 20 -10 11 0 20 5 20 10 0 6 -9 10 -20 10 -11
0 -20 -4 -20 -10z"/>
<path d="M4410 2400 c0 -5 9 -10 20 -10 11 0 20 5 20 10 0 6 -9 10 -20 10 -11
0 -20 -4 -20 -10z"/>
<path d="M4480 2400 c0 -5 9 -10 20 -10 11 0 20 5 20 10 0 6 -9 10 -20 10 -11
0 -20 -4 -20 -10z"/>
<path d="M4560 2400 c0 -5 9 -10 20 -10 11 0 20 5 20 10 0 6 -9 10 -20 10 -11
0 -20 -4 -20 -10z"/>
<path d="M4630 2400 c0 -5 9 -10 20 -10 11 0 20 5 20 10 0 6 -9 10 -20 10 -11
0 -20 -4 -20 -10z"/>
<path d="M4710 2400 c0 -5 9 -10 20 -10 11 0 20 5 20 10 0 6 -9 10 -20 10 -11
0 -20 -4 -20 -10z"/>
<path d="M4780 2400 c0 -5 9 -10 20 -10 11 0 20 5 20 10 0 6 -9 10 -20 10 -11
0 -20 -4 -20 -10z"/>
<path d="M4860 2400 c0 -5 9 -10 20 -10 11 0 20 5 20 10 0 6 -9 10 -20 10 -11
0 -20 -4 -20 -10z"/>
<path d="M4930 2400 c0 -5 9 -10 20 -10 11 0 20 5 20 10 0 6 -9 10 -20 10 -11
0 -20 -4 -20 -10z"/>
<path d="M5010 2400 c0 -5 9 -10 20 -10 11 0 20 5 20 10 0 6 -9 10 -20 10 -11
0 -20 -4 -20 -10z"/>
<path d="M5080 2400 c0 -5 9 -10 20 -10 11 0 20 5 20 10 0 6 -9 10 -20 10 -11
0 -20 -4 -20 -10z"/>
<path d="M5160 2400 c0 -5 9 -10 20 -10 11 0 20 5 20 10 0 6 -9 10 -20 10 -11
0 -20 -4 -20 -10z"/>
<path d="M5230 2400 c0 -5 9 -10 20 -10 11 0 20 5 20 10 0 6 -9 10 -20 10 -11
0 -20 -4 -20 -10z"/>
<path d="M5310 2400 c0 -5 9 -10 20 -10 11 0 20 5 20 10 0 6 -9 10 -20 10 -11
0 -20 -4 -20 -10z"/>
<path d="M5380 2400 c0 -5 9 -10 20 -10 11 0 20 5 20 10 0 6 -9 10 -20 10 -11
0 -20 -4 -20 -10z"/>
<path d="M5460 2400 c0 -5 9 -10 20 -10 11 0 20 5 20 10 0 6 -9 10 -20 10 -11
0 -20 -4 -20 -10z"/>
<path d="M1650 2176 c0 -6 9 -12 20 -12 11 0 20 3 20 7 0 4 -9 9 -20 12 -12 3
-20 0 -20 -7z"/>
<path d="M5250 2176 c0 -6 9 -12 20 -12 11 0 20 3 20 7 0 4 -9 9 -20 12 -12 3
-20 0 -20 -7z"/>
<path d="M480 2171 c0 -6 17 -7 38 -4 51 8 53 13 4 13 -23 0 -42 -4 -42 -9z"/>
<path d="M600 2171 c0 -5 9 -7 20 -4 11 3 20 7 20 9 0 2 -9 4 -20 4 -11 0 -20
-4 -20 -9z"/>
<path d="M683 2173 c9 -2 23 -2 30 0 6 3 -1 5 -18 5 -16 0 -22 -2 -12 -5z"/>
<path d="M750 2163 c0 -14 2 -15 9 -4 5 7 14 10 20 7 6 -4 11 -2 11 3 0 6 -9
11 -20 11 -12 0 -20 -7 -20 -17z"/>
<path d="M833 2173 c9 -2 23 -2 30 0 6 3 -1 5 -18 5 -16 0 -22 -2 -12 -5z"/>
<path d="M900 2171 c0 -5 9 -7 20 -4 11 3 20 7 20 9 0 2 -9 4 -20 4 -11 0 -20
-4 -20 -9z"/>
<path d="M966 2172 c-3 -5 8 -6 25 -4 16 2 29 6 29 8 0 8 -49 4 -54 -4z"/>
<path d="M1050 2171 c0 -5 9 -7 20 -4 11 3 20 7 20 9 0 2 -9 4 -20 4 -11 0
-20 -4 -20 -9z"/>
<path d="M1110 2170 c-13 -9 -13 -10 0 -10 13 0 13 -1 0 -11 -10 -7 -11 -9 -2
-7 8 2 12 8 11 13 -2 6 10 13 27 16 27 6 27 7 4 8 -14 0 -32 -4 -40 -9z"/>
<path d="M1208 2173 c6 -2 18 -2 25 0 6 3 1 5 -13 5 -14 0 -19 -2 -12 -5z"/>
<path d="M1270 2176 c0 -2 9 -6 20 -9 11 -3 20 -1 20 4 0 5 -9 9 -20 9 -11 0
-20 -2 -20 -4z"/>
<path d="M1350 2173 c0 -5 11 -9 25 -9 14 -1 22 2 19 7 -6 11 -44 12 -44 2z"/>
<path d="M1420 2176 c0 -2 9 -6 20 -9 11 -3 20 -1 20 4 0 5 -9 9 -20 9 -11 0
-20 -2 -20 -4z"/>
<path d="M1500 2171 c0 -5 9 -7 20 -4 11 3 20 7 20 9 0 2 -9 4 -20 4 -11 0
-20 -4 -20 -9z"/>
<path d="M1583 2173 c9 -2 23 -2 30 0 6 3 -1 5 -18 5 -16 0 -22 -2 -12 -5z"/>
<path d="M1728 2173 c6 -2 18 -2 25 0 6 3 1 5 -13 5 -14 0 -19 -2 -12 -5z"/>
<path d="M1800 2171 c0 -5 9 -7 20 -4 11 3 20 7 20 9 0 2 -9 4 -20 4 -11 0
-20 -4 -20 -9z"/>
<path d="M1883 2173 c9 -2 23 -2 30 0 6 3 -1 5 -18 5 -16 0 -22 -2 -12 -5z"/>
<path d="M4128 2173 c6 -2 18 -2 25 0 6 3 1 5 -13 5 -14 0 -19 -2 -12 -5z"/>
<path d="M4200 2171 c0 -5 9 -7 20 -4 11 3 20 7 20 9 0 2 -9 4 -20 4 -11 0
-20 -4 -20 -9z"/>
<path d="M4283 2173 c9 -2 23 -2 30 0 6 3 -1 5 -18 5 -16 0 -22 -2 -12 -5z"/>
<path d="M4350 2163 c0 -14 2 -15 9 -4 5 7 14 10 20 7 6 -4 11 -2 11 3 0 6 -9
11 -20 11 -12 0 -20 -7 -20 -17z"/>
<path d="M4433 2173 c9 -2 23 -2 30 0 6 3 -1 5 -18 5 -16 0 -22 -2 -12 -5z"/>
<path d="M4500 2171 c0 -5 9 -7 20 -4 11 3 20 7 20 9 0 2 -9 4 -20 4 -11 0
-20 -4 -20 -9z"/>
<path d="M4566 2172 c-3 -5 8 -6 25 -4 16 2 29 6 29 8 0 8 -49 4 -54 -4z"/>
<path d="M4650 2171 c0 -5 9 -7 20 -4 11 3 20 7 20 9 0 2 -9 4 -20 4 -11 0
-20 -4 -20 -9z"/>
<path d="M4710 2170 c-13 -9 -13 -10 0 -10 13 0 13 -1 0 -11 -10 -7 -11 -9 -2
-7 8 2 12 8 11 13 -2 6 10 13 27 16 27 6 27 7 4 8 -14 0 -32 -4 -40 -9z"/>
<path d="M4808 2173 c6 -2 18 -2 25 0 6 3 1 5 -13 5 -14 0 -19 -2 -12 -5z"/>
<path d="M4870 2176 c0 -2 9 -6 20 -9 11 -3 20 -1 20 4 0 5 -9 9 -20 9 -11 0
-20 -2 -20 -4z"/>
<path d="M4950 2173 c0 -5 11 -9 25 -9 14 -1 22 2 19 7 -6 11 -44 12 -44 2z"/>
<path d="M5020 2176 c0 -2 9 -6 20 -9 11 -3 20 -1 20 4 0 5 -9 9 -20 9 -11 0
-20 -2 -20 -4z"/>
<path d="M5100 2171 c0 -5 9 -7 20 -4 11 3 20 7 20 9 0 2 -9 4 -20 4 -11 0
-20 -4 -20 -9z"/>
<path d="M5183 2173 c9 -2 23 -2 30 0 6 3 -1 5 -18 5 -16 0 -22 -2 -12 -5z"/>
<path d="M5328 2173 c6 -2 18 -2 25 0 6 3 1 5 -13 5 -14 0 -19 -2 -12 -5z"/>
<path d="M5400 2171 c0 -5 9 -7 20 -4 11 3 20 7 20 9 0 2 -9 4 -20 4 -11 0
-20 -4 -20 -9z"/>
<path d="M5475 2170 c3 -5 15 -10 26 -10 10 0 19 5 19 10 0 6 -12 10 -26 10
-14 0 -23 -4 -19 -10z"/>
<path d="M425 2149 c-4 -6 -5 -13 -2 -16 7 -7 27 6 27 18 0 12 -17 12 -25 -2z"/>
<path d="M5553 2143 c9 -9 20 -13 24 -9 4 4 1 11 -7 16 -25 16 -35 11 -17 -7z"/>
<path d="M387 2104 c-4 -4 -7 -17 -7 -28 1 -19 1 -20 11 -3 11 19 8 43 -4 31z"/>
<path d="M5600 2096 c0 -8 5 -18 10 -21 6 -3 10 1 10 9 0 8 -4 18 -10 21 -5 3
-10 -1 -10 -9z"/>
<path d="M1546 2034 c-13 -34 -4 -104 14 -104 5 0 3 14 -3 30 -8 22 -8 38 0
60 6 17 8 30 3 30 -4 0 -11 -7 -14 -16z"/>
<path d="M530 1994 c0 -44 1 -45 28 -42 23 3 27 8 27 33 0 22 -4 30 -17 29
-10 -1 -18 4 -18 12 0 8 -4 14 -10 14 -5 0 -10 -21 -10 -46z m50 -14 c0 -11
-7 -20 -15 -20 -8 0 -15 9 -15 20 0 11 7 20 15 20 8 0 15 -9 15 -20z"/>
<path d="M730 1995 c0 -25 5 -45 10 -45 6 0 10 5 10 12 0 9 3 9 12 0 20 -20
33 -14 14 7 -15 16 -15 19 -1 31 9 7 13 15 10 18 -3 3 -13 -2 -24 -12 -18 -16
-18 -16 -14 9 3 15 1 25 -6 25 -6 0 -11 -19 -11 -45z"/>
<path d="M980 2025 c0 -8 -6 -12 -14 -9 -18 7 -38 -28 -30 -50 3 -9 17 -16 30
-16 22 0 24 4 24 45 0 25 -2 45 -5 45 -3 0 -5 -7 -5 -15z m0 -46 c0 -10 -7
-19 -15 -19 -15 0 -21 31 -9 43 11 10 24 -3 24 -24z"/>
<path d="M1440 1995 c0 -25 4 -45 9 -45 12 0 18 27 13 63 -7 44 -22 31 -22
-18z"/>
<path d="M1580 1995 c0 -25 4 -45 9 -45 5 0 8 20 7 45 0 25 -4 45 -8 45 -5 0
-8 -20 -8 -45z"/>
<path d="M5611 2033 c0 -5 4 -17 9 -28 8 -18 9 -17 9 8 1 15 -3 27 -9 27 -5 0
-10 -3 -9 -7z"/>
<path d="M372 2010 c0 -14 2 -19 5 -12 2 6 2 18 0 25 -3 6 -5 1 -5 -13z"/>
<path d="M1187 2022 c-3 -4 -3 -18 -2 -32 2 -14 4 -28 4 -32 1 -5 9 -8 19 -7
10 0 12 3 5 6 -15 6 -17 53 -3 53 6 0 13 -13 17 -30 7 -36 20 -39 32 -8 l8 23
7 -23 c9 -28 22 -28 30 1 10 40 5 53 -9 22 -12 -26 -13 -27 -14 -8 -1 33 -20
37 -28 6 -7 -28 -7 -28 -13 -4 -5 23 -45 48 -53 33z"/>
<path d="M1687 2022 c-3 -4 -2 -22 0 -39 4 -22 11 -33 22 -32 10 0 11 2 4 6
-15 6 -17 43 -3 43 6 0 10 4 10 9 0 11 -28 22 -33 13z"/>
<path d="M614 2009 c-5 -9 -2 -10 9 -6 10 3 17 3 17 -2 0 -5 -9 -11 -21 -14
-29 -8 -19 -31 15 -35 26 -3 27 -1 24 30 -3 34 -29 50 -44 27z m31 -39 c-3 -5
-10 -10 -16 -10 -5 0 -9 5 -9 10 0 6 7 10 16 10 8 0 12 -4 9 -10z"/>
<path d="M680 2005 c-18 -22 -8 -50 20 -52 15 -1 18 0 8 3 -22 7 -24 44 -3 44
8 0 15 5 15 10 0 15 -26 12 -40 -5z"/>
<path d="M800 2005 c-19 -23 -3 -55 28 -54 24 2 24 2 5 6 -28 5 -30 23 -3 23
23 0 26 10 8 28 -16 16 -23 15 -38 -3z m35 -5 c3 -5 -1 -10 -10 -10 -9 0 -13
5 -10 10 3 6 8 10 10 10 2 0 7 -4 10 -10z"/>
<path d="M860 1984 c0 -19 5 -34 10 -34 6 0 10 11 10 25 0 34 27 32 33 -2 4
-21 4 -19 3 7 -1 31 -4 35 -28 36 -25 1 -28 -2 -28 -32z"/>
<path d="M1040 1983 c0 -40 17 -44 22 -5 4 36 21 34 30 -4 6 -28 6 -27 5 6 -2
31 -5 35 -29 35 -25 1 -28 -3 -28 -32z"/>
<path d="M1120 1999 c-14 -26 3 -50 34 -48 20 2 20 2 -1 6 -28 5 -30 23 -3 23
24 0 27 25 4 34 -22 8 -22 8 -34 -15z m37 -5 c-3 -3 -12 -4 -19 -1 -8 3 -5 6
6 6 11 1 17 -2 13 -5z"/>
<path d="M1330 2005 c-19 -23 -8 -50 20 -50 16 0 26 6 28 18 4 18 -14 47 -28
47 -4 0 -13 -7 -20 -15z m35 -25 c0 -22 -29 -18 -33 3 -3 14 1 18 15 15 10 -2
18 -10 18 -18z"/>
<path d="M1408 2012 c-19 -4 -26 -62 -8 -62 6 0 10 11 10 24 0 13 6 26 13 29
17 6 5 14 -15 9z"/>
<path d="M1475 2009 c-11 -17 1 -21 15 -4 8 9 8 15 2 15 -6 0 -14 -5 -17 -11z"/>
<path d="M1610 1984 c0 -41 17 -45 22 -6 4 32 23 27 23 -5 -1 -13 3 -23 8 -23
4 0 7 15 5 33 -3 27 -7 32 -30 33 -25 1 -28 -2 -28 -32z"/>
<path d="M1742 2011 c-23 -14 -10 -56 18 -58 l25 -3 -25 12 -25 11 23 5 c15 2
22 9 20 19 -4 20 -19 26 -36 14z m23 -11 c3 -5 -1 -10 -10 -10 -9 0 -13 5 -10
10 3 6 8 10 10 10 2 0 7 -4 10 -10z"/>
<path d="M1801 1980 c1 -27 3 -29 6 -10 3 13 12 30 21 37 15 10 15 12 -5 10
-20 -1 -23 -7 -22 -37z"/>
<path d="M1470 1972 c0 -12 19 -26 26 -19 2 2 -2 10 -11 17 -9 8 -15 8 -15 2z"/>
<path d="M372 1935 c0 -16 2 -22 5 -12 2 9 2 23 0 30 -3 6 -5 -1 -5 -18z"/>
<path d="M5622 1940 c0 -14 2 -19 5 -12 2 6 2 18 0 25 -3 6 -5 1 -5 -13z"/>
<path d="M560 1921 c-8 -6 -18 -7 -24 -4 -5 3 -6 1 -2 -5 5 -9 13 -9 27 -2 10
6 19 13 19 15 0 7 -3 6 -20 -4z"/>
<path d="M1136 1918 c3 -5 10 -6 15 -3 13 9 11 12 -6 12 -8 0 -12 -4 -9 -9z"/>
<path d="M1215 1921 c-3 -5 -2 -12 3 -15 5 -3 9 1 9 9 0 17 -3 19 -12 6z"/>
<path d="M1403 1915 c0 -8 4 -12 9 -9 5 3 6 10 3 15 -9 13 -12 11 -12 -6z"/>
<path d="M679 1903 c-13 -16 -12 -17 4 -4 9 7 17 15 17 17 0 8 -8 3 -21 -13z"/>
<path d="M840 1911 c0 -6 4 -13 10 -16 6 -3 7 1 4 9 -7 18 -14 21 -14 7z"/>
<path d="M1265 1911 c-3 -5 -2 -12 3 -15 5 -3 9 1 9 9 0 17 -3 19 -12 6z"/>
<path d="M485 1900 c-3 -6 1 -7 9 -4 18 7 21 14 7 14 -6 0 -13 -4 -16 -10z"/>
<path d="M1446 1898 c3 -4 11 -5 19 -1 21 7 19 12 -4 10 -11 0 -18 -5 -15 -9z"/>
<path d="M1717 1899 c7 -7 15 -10 18 -7 3 3 -2 9 -12 12 -14 6 -15 5 -6 -5z"/>
<path d="M5622 1870 c0 -14 2 -19 5 -12 2 6 2 18 0 25 -3 6 -5 1 -5 -13z"/>
<path d="M372 1860 c0 -14 2 -19 5 -12 2 6 2 18 0 25 -3 6 -5 1 -5 -13z"/>
<path d="M372 1790 c0 -14 2 -19 5 -12 2 6 2 18 0 25 -3 6 -5 1 -5 -13z"/>
<path d="M5617 1790 c3 -11 7 -20 9 -20 2 0 4 9 4 20 0 11 -4 20 -9 20 -5 0
-7 -9 -4 -20z"/>
<path d="M5622 1715 c0 -16 2 -22 5 -12 2 9 2 23 0 30 -3 6 -5 -1 -5 -18z"/>
<path d="M370 1710 c0 -11 2 -20 4 -20 2 0 6 9 9 20 3 11 1 20 -4 20 -5 0 -9
-9 -9 -20z"/>
<path d="M372 1640 c0 -14 2 -19 5 -12 2 6 2 18 0 25 -3 6 -5 1 -5 -13z"/>
<path d="M5617 1640 c-3 -11 -1 -20 4 -20 5 0 9 9 9 20 0 11 -2 20 -4 20 -2 0
-6 -9 -9 -20z"/>
<path d="M5617 1570 c-3 -12 0 -20 8 -20 8 0 11 8 8 20 -3 11 -7 20 -8 20 -1
0 -5 -9 -8 -20z"/>
<path d="M370 1563 c0 -12 5 -25 10 -28 13 -8 13 15 0 35 -8 12 -10 11 -10 -7z"/>
<path d="M367 1490 c-3 -12 0 -20 8 -20 8 0 11 8 8 20 -3 11 -7 20 -8 20 -1 0
-5 -9 -8 -20z"/>
<path d="M5617 1490 c3 -11 7 -20 9 -20 2 0 4 9 4 20 0 11 -4 20 -9 20 -5 0
-7 -9 -4 -20z"/>
<path d="M5617 1420 c3 -11 7 -20 9 -20 2 0 4 9 4 20 0 11 -4 20 -9 20 -5 0
-7 -9 -4 -20z"/>
<path d="M367 1410 c3 -11 7 -20 8 -20 1 0 5 9 8 20 3 12 0 20 -8 20 -8 0 -11
-8 -8 -20z"/>
<path d="M370 1340 c0 -11 2 -20 4 -20 2 0 6 9 9 20 3 11 1 20 -4 20 -5 0 -9
-9 -9 -20z"/>
<path d="M5622 1340 c0 -14 2 -19 5 -12 2 6 2 18 0 25 -3 6 -5 1 -5 -13z"/>
<path d="M5622 1265 c0 -16 2 -22 5 -12 2 9 2 23 0 30 -3 6 -5 -1 -5 -18z"/>
<path d="M372 1260 c0 -14 2 -19 5 -12 2 6 2 18 0 25 -3 6 -5 1 -5 -13z"/>
<path d="M367 1190 c-3 -12 0 -20 8 -20 8 0 11 8 8 20 -3 11 -7 20 -8 20 -1 0
-5 -9 -8 -20z"/>
<path d="M5617 1190 c-3 -11 -1 -20 4 -20 5 0 9 9 9 20 0 11 -2 20 -4 20 -2 0
-6 -9 -9 -20z"/>
<path d="M5622 1120 c0 -14 2 -19 5 -12 2 6 2 18 0 25 -3 6 -5 1 -5 -13z"/>
<path d="M372 1110 c0 -14 2 -19 5 -12 2 6 2 18 0 25 -3 6 -5 1 -5 -13z"/>
<path d="M5622 1045 c0 -16 2 -22 5 -12 2 9 2 23 0 30 -3 6 -5 -1 -5 -18z"/>
<path d="M372 1040 c0 -14 2 -19 5 -12 2 6 2 18 0 25 -3 6 -5 1 -5 -13z"/>
<path d="M372 965 c0 -16 2 -22 5 -12 2 9 2 23 0 30 -3 6 -5 -1 -5 -18z"/>
<path d="M5622 965 c0 -16 2 -22 5 -12 2 9 2 23 0 30 -3 6 -5 -1 -5 -18z"/>
<path d="M367 890 c-3 -11 -1 -20 4 -20 5 0 9 9 9 20 0 11 -2 20 -4 20 -2 0
-6 -9 -9 -20z"/>
<path d="M5617 890 c3 -11 7 -20 9 -20 2 0 4 9 4 20 0 11 -4 20 -9 20 -5 0 -7
-9 -4 -20z"/>
<path d="M5622 815 c0 -16 2 -22 5 -12 2 9 2 23 0 30 -3 6 -5 -1 -5 -18z"/>
<path d="M372 810 c0 -14 2 -19 5 -12 2 6 2 18 0 25 -3 6 -5 1 -5 -13z"/>
<path d="M372 735 c0 -16 2 -22 5 -12 2 9 2 23 0 30 -3 6 -5 -1 -5 -18z"/>
<path d="M5622 740 c0 -14 2 -19 5 -12 2 6 2 18 0 25 -3 6 -5 1 -5 -13z"/>
<path d="M5622 670 c0 -14 2 -19 5 -12 2 6 2 18 0 25 -3 6 -5 1 -5 -13z"/>
<path d="M372 660 c0 -14 2 -19 5 -12 2 6 2 18 0 25 -3 6 -5 1 -5 -13z"/>
<path d="M372 590 c0 -14 2 -19 5 -12 2 6 2 18 0 25 -3 6 -5 1 -5 -13z"/>
<path d="M5617 590 c3 -11 7 -20 9 -20 2 0 4 9 4 20 0 11 -4 20 -9 20 -5 0 -7
-9 -4 -20z"/>
<path d="M5622 515 c0 -16 2 -22 5 -12 2 9 2 23 0 30 -3 6 -5 -1 -5 -18z"/>
<path d="M370 510 c0 -11 2 -20 4 -20 2 0 6 9 9 20 3 11 1 20 -4 20 -5 0 -9
-9 -9 -20z"/>
<path d="M372 440 c0 -14 2 -19 5 -12 2 6 2 18 0 25 -3 6 -5 1 -5 -13z"/>
<path d="M5617 440 c-3 -11 -1 -20 4 -20 5 0 9 9 9 20 0 11 -2 20 -4 20 -2 0
-6 -9 -9 -20z"/>
<path d="M5617 370 c-3 -11 -1 -20 4 -20 5 0 9 9 9 20 0 11 -2 20 -4 20 -2 0
-6 -9 -9 -20z"/>
<path d="M370 362 c0 -11 4 -23 9 -27 6 -3 8 4 6 16 -6 30 -15 37 -15 11z"/>
<path d="M5592 299 c-7 -10 -8 -19 -3 -19 13 0 33 28 23 33 -4 3 -13 -3 -20
-14z"/>
<path d="M390 304 c0 -17 17 -36 24 -26 3 5 -1 15 -9 22 -8 7 -15 9 -15 4z"/>
<path d="M440 250 c0 -12 28 -25 36 -17 3 3 -4 10 -15 17 -15 7 -21 7 -21 0z"/>
<path d="M5540 250 c-8 -5 -12 -12 -9 -15 8 -8 39 5 39 16 0 11 -11 11 -30 -1z"/>
<path d="M660 225 c0 -8 8 -11 20 -8 11 3 20 7 20 8 0 1 -9 5 -20 8 -12 3 -20
0 -20 -8z"/>
<path d="M880 229 c0 -5 9 -9 20 -9 11 0 20 2 20 4 0 2 -9 6 -20 9 -11 3 -20
1 -20 -4z"/>
<path d="M955 230 c-8 -13 8 -18 29 -10 19 6 19 7 -2 12 -12 4 -24 2 -27 -2z"/>
<path d="M1110 229 c0 -5 9 -9 20 -9 11 0 20 2 20 4 0 2 -9 6 -20 9 -11 3 -20
1 -20 -4z"/>
<path d="M1260 225 c0 -8 8 -11 20 -8 11 3 20 7 20 8 0 1 -9 5 -20 8 -12 3
-20 0 -20 -8z"/>
<path d="M1495 230 c-18 -8 -17 -9 8 -9 16 -1 26 3 22 9 -3 6 -7 10 -8 9 -1 0
-11 -4 -22 -9z"/>
<path d="M1795 230 c-19 -8 -19 -9 3 -9 12 -1 22 4 22 9 0 6 -1 10 -2 9 -2 0
-12 -4 -23 -9z"/>
<path d="M1860 225 c0 -8 8 -11 20 -8 11 3 20 7 20 8 0 1 -9 5 -20 8 -12 3
-20 0 -20 -8z"/>
<path d="M2080 229 c0 -5 9 -9 20 -9 11 0 20 2 20 4 0 2 -9 6 -20 9 -11 3 -20
1 -20 -4z"/>
<path d="M2155 230 c-8 -13 8 -18 29 -10 19 6 19 7 -2 12 -12 4 -24 2 -27 -2z"/>
<path d="M2245 230 c-19 -8 -19 -9 3 -9 12 -1 22 4 22 9 0 6 -1 10 -2 9 -2 0
-12 -4 -23 -9z"/>
<path d="M2310 229 c0 -5 9 -9 20 -9 11 0 20 2 20 4 0 2 -9 6 -20 9 -11 3 -20
1 -20 -4z"/>
<path d="M2460 225 c0 -8 8 -11 20 -8 11 3 20 7 20 8 0 1 -9 5 -20 8 -12 3
-20 0 -20 -8z"/>
<path d="M2695 230 c-18 -8 -17 -9 8 -9 16 -1 26 3 22 9 -3 6 -7 10 -8 9 -1 0
-11 -4 -22 -9z"/>
<path d="M3060 225 c0 -8 8 -11 20 -8 11 3 20 7 20 8 0 1 -9 5 -20 8 -12 3
-20 0 -20 -8z"/>
<path d="M3280 229 c0 -5 9 -9 20 -9 11 0 20 2 20 4 0 2 -9 6 -20 9 -11 3 -20
1 -20 -4z"/>
<path d="M3355 230 c-8 -13 8 -18 29 -10 19 6 19 7 -2 12 -12 4 -24 2 -27 -2z"/>
<path d="M3445 230 c-19 -8 -19 -9 3 -9 12 -1 22 4 22 9 0 6 -1 10 -2 9 -2 0
-12 -4 -23 -9z"/>
<path d="M3510 229 c0 -5 9 -9 20 -9 11 0 20 2 20 4 0 2 -9 6 -20 9 -11 3 -20
1 -20 -4z"/>
<path d="M3660 225 c0 -8 8 -11 20 -8 11 3 20 7 20 8 0 1 -9 5 -20 8 -12 3
-20 0 -20 -8z"/>
<path d="M3895 230 c-18 -8 -17 -9 8 -9 16 -1 26 3 22 9 -3 6 -7 10 -8 9 -1 0
-11 -4 -22 -9z"/>
<path d="M4260 225 c0 -8 8 -11 20 -8 11 3 20 7 20 8 0 1 -9 5 -20 8 -12 3
-20 0 -20 -8z"/>
<path d="M4480 229 c0 -5 9 -9 20 -9 11 0 20 2 20 4 0 2 -9 6 -20 9 -11 3 -20
1 -20 -4z"/>
<path d="M4555 230 c-8 -13 8 -18 29 -10 19 6 19 7 -2 12 -12 4 -24 2 -27 -2z"/>
<path d="M4645 230 c-19 -8 -19 -9 3 -9 12 -1 22 4 22 9 0 6 -1 10 -2 9 -2 0
-12 -4 -23 -9z"/>
<path d="M4710 229 c0 -5 9 -9 20 -9 11 0 20 2 20 4 0 2 -9 6 -20 9 -11 3 -20
1 -20 -4z"/>
<path d="M4860 225 c0 -8 8 -11 20 -8 11 3 20 7 20 8 0 1 -9 5 -20 8 -12 3
-20 0 -20 -8z"/>
<path d="M5095 230 c-18 -8 -17 -9 8 -9 16 -1 26 3 22 9 -3 6 -7 10 -8 9 -1 0
-11 -4 -22 -9z"/>
<path d="M5460 225 c0 -8 8 -11 20 -8 11 3 20 7 20 8 0 1 -9 5 -20 8 -12 3
-20 0 -20 -8z"/>
<path d="M513 223 c9 -2 23 -2 30 0 6 3 -1 5 -18 5 -16 0 -22 -2 -12 -5z"/>
<path d="M588 223 c6 -2 18 -2 25 0 6 3 1 5 -13 5 -14 0 -19 -2 -12 -5z"/>
<path d="M743 223 c9 -2 23 -2 30 0 6 3 -1 5 -18 5 -16 0 -22 -2 -12 -5z"/>
<path d="M818 223 c6 -2 18 -2 25 0 6 3 1 5 -13 5 -14 0 -19 -2 -12 -5z"/>
<path d="M1038 223 c6 -2 18 -2 25 0 6 3 1 5 -13 5 -14 0 -19 -2 -12 -5z"/>
<path d="M1188 223 c6 -2 18 -2 25 0 6 3 1 5 -13 5 -14 0 -19 -2 -12 -5z"/>
<path d="M1338 223 c6 -2 18 -2 25 0 6 3 1 5 -13 5 -14 0 -19 -2 -12 -5z"/>
<path d="M1413 223 c9 -2 23 -2 30 0 6 3 -1 5 -18 5 -16 0 -22 -2 -12 -5z"/>
<path d="M1568 223 c6 -2 18 -2 25 0 6 3 1 5 -13 5 -14 0 -19 -2 -12 -5z"/>
<path d="M1638 223 c6 -2 18 -2 25 0 6 3 1 5 -13 5 -14 0 -19 -2 -12 -5z"/>
<path d="M1713 223 c9 -2 23 -2 30 0 6 3 -1 5 -18 5 -16 0 -22 -2 -12 -5z"/>
<path d="M1943 223 c9 -2 23 -2 30 0 6 3 -1 5 -18 5 -16 0 -22 -2 -12 -5z"/>
<path d="M2010 221 c0 -5 9 -7 20 -4 11 3 20 7 20 9 0 2 -9 4 -20 4 -11 0 -20
-4 -20 -9z"/>
<path d="M2388 223 c6 -2 18 -2 25 0 6 3 1 5 -13 5 -14 0 -19 -2 -12 -5z"/>
<path d="M2538 223 c6 -2 18 -2 25 0 6 3 1 5 -13 5 -14 0 -19 -2 -12 -5z"/>
<path d="M2613 223 c9 -2 23 -2 30 0 6 3 -1 5 -18 5 -16 0 -22 -2 -12 -5z"/>
<path d="M2768 223 c6 -2 18 -2 25 0 6 3 1 5 -13 5 -14 0 -19 -2 -12 -5z"/>
<path d="M2838 223 c6 -2 18 -2 25 0 6 3 1 5 -13 5 -14 0 -19 -2 -12 -5z"/>
<path d="M2913 223 c9 -2 23 -2 30 0 6 3 -1 5 -18 5 -16 0 -22 -2 -12 -5z"/>
<path d="M2988 223 c6 -2 18 -2 25 0 6 3 1 5 -13 5 -14 0 -19 -2 -12 -5z"/>
<path d="M3143 223 c9 -2 23 -2 30 0 6 3 -1 5 -18 5 -16 0 -22 -2 -12 -5z"/>
<path d="M3210 221 c0 -5 9 -7 20 -4 11 3 20 7 20 9 0 2 -9 4 -20 4 -11 0 -20
-4 -20 -9z"/>
<path d="M3588 223 c6 -2 18 -2 25 0 6 3 1 5 -13 5 -14 0 -19 -2 -12 -5z"/>
<path d="M3738 223 c6 -2 18 -2 25 0 6 3 1 5 -13 5 -14 0 -19 -2 -12 -5z"/>
<path d="M3813 223 c9 -2 23 -2 30 0 6 3 -1 5 -18 5 -16 0 -22 -2 -12 -5z"/>
<path d="M3968 223 c6 -2 18 -2 25 0 6 3 1 5 -13 5 -14 0 -19 -2 -12 -5z"/>
<path d="M4038 223 c6 -2 18 -2 25 0 6 3 1 5 -13 5 -14 0 -19 -2 -12 -5z"/>
<path d="M4113 223 c9 -2 23 -2 30 0 6 3 -1 5 -18 5 -16 0 -22 -2 -12 -5z"/>
<path d="M4188 223 c6 -2 18 -2 25 0 6 3 1 5 -13 5 -14 0 -19 -2 -12 -5z"/>
<path d="M4343 223 c9 -2 23 -2 30 0 6 3 -1 5 -18 5 -16 0 -22 -2 -12 -5z"/>
<path d="M4418 223 c6 -2 18 -2 25 0 6 3 1 5 -13 5 -14 0 -19 -2 -12 -5z"/>
<path d="M4788 223 c6 -2 18 -2 25 0 6 3 1 5 -13 5 -14 0 -19 -2 -12 -5z"/>
<path d="M4938 223 c6 -2 18 -2 25 0 6 3 1 5 -13 5 -14 0 -19 -2 -12 -5z"/>
<path d="M5013 223 c9 -2 23 -2 30 0 6 3 -1 5 -18 5 -16 0 -22 -2 -12 -5z"/>
<path d="M5168 223 c6 -2 18 -2 25 0 6 3 1 5 -13 5 -14 0 -19 -2 -12 -5z"/>
<path d="M5238 223 c6 -2 18 -2 25 0 6 3 1 5 -13 5 -14 0 -19 -2 -12 -5z"/>
<path d="M5313 223 c9 -2 23 -2 30 0 6 3 -1 5 -18 5 -16 0 -22 -2 -12 -5z"/>
<path d="M5388 223 c6 -2 18 -2 25 0 6 3 1 5 -13 5 -14 0 -19 -2 -12 -5z"/>
</g>
</svg>
